<svg viewBox="0 0 2455 1063" fill="none" xmlns="http://www.w3.org/2000/svg">
<path d="M2454.03 778.891C2453.92 783.612 2453.75 788.303 2453.51 792.966C2453.27 797.583 2452.99 802.16 2452.62 806.709C2450.57 832.528 2446.58 857.261 2441.4 880.471C2441.13 881.69 2440.85 882.909 2440.57 884.107L2440.43 884.784C2439.67 888.038 2438.89 891.265 2438.11 894.461C2436.66 900.21 2435.17 905.853 2433.63 911.382C2433.35 912.391 2433.06 913.419 2432.77 914.419C2428.64 928.864 2424.17 942.511 2419.57 955.227C2418.81 957.348 2418.03 959.452 2417.27 961.516C2415.17 967.093 2413.08 972.479 2410.99 977.666C2409.51 981.359 2408.02 984.946 2406.52 988.419V988.429C2398.59 1007.14 2390.92 1022.68 2384.76 1034.38C2376.41 1050.17 2369.76 1062.24 2369.76 1062.24C2369.76 1062.24 68.2862 1062.55 68.1726 1062.49C-51.4724 981.691 -3.44045 824.076 145.733 707.268C257.49 619.753 346.821 596.895 288.152 413.242C271.577 361.335 275.518 314.579 291.96 273.16C344.007 141.93 521.42 64.3508 568.507 47.0095C635.645 22.275 715.203 8.43958 797.791 3.30894C804.519 2.89667 811.276 2.53958 818.062 2.24093C837.134 1.3677 856.348 0.965096 875.543 0.992689C883.298 1.00243 891.055 1.07719 898.82 1.2184C911.735 1.45213 924.639 1.88377 937.487 2.49406C949.459 3.05566 961.383 3.77957 973.241 4.65118C975.82 4.83783 978.399 5.03588 980.969 5.25176C989.8 5.94482 998.575 6.72402 1007.3 7.58751C1011.2 7.97219 1015.09 8.36483 1018.96 8.7771C1052.09 12.3431 1084.31 17.0421 1114.96 22.7441C1155.58 30.285 1192.22 39.7396 1225.43 50.6209C1225.46 50.629 1225.5 50.6387 1225.54 50.6566C1304.15 76.4039 1363.55 110.077 1411.04 145.016C1422.04 153.12 1432.4 161.279 1442.22 169.431C1443.58 170.557 1444.91 171.682 1446.24 172.807C1449.28 175.348 1452.25 177.892 1455.17 180.432C1456.53 181.606 1457.87 182.777 1459.2 183.959C1467.81 191.576 1476.03 199.145 1483.88 206.574C1487.86 210.335 1491.72 214.05 1495.52 217.736C1516.26 237.929 1534.56 256.895 1551.92 273.16C1554.13 275.223 1556.31 277.229 1558.48 279.2C1588.33 306.203 1616.09 324.512 1650.12 326.481C1666.84 327.446 1685.72 325.713 1706.57 322.598C1712.34 321.745 1718.24 320.779 1724.3 319.737C1726.72 319.324 1729.13 318.893 1731.57 318.453C1731.94 318.386 1732.32 318.321 1732.67 318.256C1736.57 317.562 1740.53 316.83 1744.55 316.098C1784.81 308.661 1830.72 299.365 1881.27 295.247C1953.17 289.394 2034.46 293.999 2122.14 329.324C2124.95 330.449 2127.72 331.603 2130.51 332.785C2143.34 338.216 2156.3 344.302 2169.37 351.121C2172.08 352.538 2174.79 353.983 2177.5 355.455C2190.83 362.676 2204.27 370.668 2217.84 379.485C2218.18 379.709 2218.5 379.926 2218.83 380.142C2224.69 383.95 2230.58 387.927 2236.49 392.072C2243.37 396.904 2250.28 401.939 2257.23 407.23C2274.08 420.006 2291.09 434.132 2308.24 449.71C2320.64 460.965 2332.1 472.37 2342.62 483.917C2349.86 491.843 2356.68 499.816 2363.09 507.843C2364.24 509.28 2365.38 510.724 2366.5 512.169C2377.47 526.266 2387.22 540.533 2395.86 554.878C2396.93 556.668 2397.98 558.447 2399.02 560.228C2410.53 580.021 2419.95 599.95 2427.51 619.896C2428.16 621.562 2428.77 623.227 2429.38 624.902C2432.65 633.857 2435.56 642.784 2438.11 651.72C2441.61 663.939 2444.47 676.121 2446.76 688.236C2452.59 719.146 2454.66 749.571 2454.03 778.891" fill="#EBF3FA"/>
<path d="M1731.58 318.447V616.308H1007.3V7.59097C1011.2 7.96841 1015.08 8.36944 1018.96 8.77047C1052.08 12.3443 1084.31 17.0387 1114.96 22.7475C1155.58 30.2845 1192.22 39.744 1225.43 50.619C1225.46 50.6308 1225.5 50.6425 1225.54 50.6543C1304.14 76.4027 1363.55 110.077 1411.04 145.014C1422.04 153.117 1432.4 161.279 1442.22 169.43C1443.58 170.55 1444.91 171.683 1446.24 172.803C1449.28 175.351 1452.25 177.887 1455.16 180.434C1456.53 181.602 1457.86 182.782 1459.2 183.961C1467.82 191.569 1476.04 199.141 1483.88 206.572C1487.86 210.335 1491.73 214.05 1495.51 217.73C1516.27 237.923 1534.56 256.889 1551.93 273.155C1554.14 275.219 1556.31 277.224 1558.49 279.194C1588.33 306.204 1616.08 324.511 1650.12 326.48C1666.84 327.446 1685.72 325.71 1706.57 322.597C1712.34 321.744 1718.25 320.778 1724.3 319.736C1726.72 319.324 1729.14 318.892 1731.58 318.447Z" fill="#F8FBFF"/>
<path d="M1655.82 508.772V603.683H1018.98V306.388H1075.76V396.739H1140.51V249.51H1211.95V345.091H1228.24V230.997H1299.66V444.917H1390.01V569.661H1423.76V514.114H1501.32V546.973H1545.84V399.931H1600.82V508.772H1655.82" fill="#EBF3FE"/>
<path d="M1018.96 8.77376V598.046H980.968V5.2526C989.8 5.94731 998.574 6.72768 1007.3 7.58418C1011.2 7.97436 1015.09 8.36455 1018.96 8.77376Z" fill="#DFEBFD"/>
<path d="M1744.56 316.096V598.043H1706.58V322.595C1712.33 321.742 1718.25 320.776 1724.3 319.734C1726.71 319.322 1729.14 318.89 1731.58 318.45C1731.95 318.384 1732.32 318.319 1732.68 318.254C1736.58 317.559 1740.54 316.827 1744.56 316.096Z" fill="#DFEBFD"/>
<path d="M961.738 627.107V589.117H1744.56V627.107H961.738Z" fill="#DFEBFD"/>
<path d="M867.577 224.65H755.809C750.678 224.65 746.48 220.453 746.48 215.324V107.452C746.48 102.323 750.678 98.1165 755.809 98.1165H867.577C872.707 98.1165 876.904 102.323 876.904 107.452V215.324C876.904 220.453 872.707 224.65 867.577 224.65" fill="#C0D8FB"/>
<path d="M862.733 219.168H760.651C755.965 219.168 752.131 215.333 752.131 210.651V112.125C752.131 107.433 755.965 103.598 760.651 103.598H862.733C867.416 103.598 871.251 107.433 871.251 112.125V210.651C871.251 215.333 867.416 219.168 862.733 219.168Z" fill="#DFEBFD"/>
<path d="M808.993 115.151C808.993 113.657 810.201 112.448 811.695 112.448C813.18 112.448 814.398 113.657 814.398 115.151C814.398 116.645 813.18 117.854 811.695 117.854C810.201 117.854 808.993 116.645 808.993 115.151Z" fill="#B7D3F3"/>
<path d="M830.786 118.967C831.519 117.663 833.156 117.197 834.459 117.92C835.773 118.644 836.239 120.29 835.516 121.594C834.792 122.898 833.146 123.364 831.842 122.641C830.539 121.917 830.063 120.271 830.786 118.967Z" fill="#B7D3F3"/>
<path d="M849.467 133.804C850.723 132.995 852.389 133.357 853.197 134.613C854.006 135.869 853.645 137.535 852.398 138.343C851.142 139.152 849.467 138.791 848.658 137.544C847.849 136.288 848.211 134.613 849.467 133.804" fill="#B7D3F3"/>
<path d="M858.717 156.777C860.211 156.777 861.42 157.986 861.42 159.47C861.42 160.964 860.211 162.173 858.717 162.173C857.223 162.173 856.015 160.964 856.015 159.47C856.015 157.986 857.223 156.777 858.717 156.777Z" fill="#B7D3F3"/>
<path d="M853.997 183.424C855.053 184.48 855.053 186.193 853.997 187.249C852.941 188.296 851.228 188.296 850.171 187.249C849.115 186.193 849.115 184.48 850.171 183.424C851.228 182.367 852.941 182.367 853.997 183.424Z" fill="#B7D3F3"/>
<path d="M837.029 200.43C838.085 201.486 838.085 203.199 837.029 204.256C835.973 205.312 834.26 205.312 833.213 204.256C832.156 203.199 832.156 201.486 833.213 200.43C834.26 199.383 835.973 199.383 837.029 200.43Z" fill="#B7D3F3"/>
<path d="M808.993 209.204C808.993 207.71 810.201 206.502 811.695 206.502C813.18 206.502 814.398 207.71 814.398 209.204C814.398 210.689 813.18 211.907 811.695 211.907C810.201 211.907 808.993 210.689 808.993 209.204Z" fill="#B7D3F3"/>
<path d="M792.51 118.967C791.787 117.663 790.14 117.197 788.836 117.92C787.533 118.644 787.057 120.29 787.78 121.594C788.513 122.898 790.15 123.364 791.453 122.641C792.767 121.917 793.233 120.271 792.51 118.967Z" fill="#B7D3F3"/>
<path d="M773.828 133.804C772.572 132.995 770.907 133.357 770.098 134.613C769.289 135.869 769.651 137.535 770.897 138.343C772.153 139.152 773.828 138.791 774.637 137.544C775.446 136.288 775.085 134.613 773.828 133.804" fill="#B7D3F3"/>
<path d="M764.578 156.777C763.084 156.777 761.875 157.986 761.875 159.47C761.875 160.964 763.084 162.173 764.578 162.173C766.072 162.173 767.281 160.964 767.281 159.47C767.281 157.986 766.072 156.777 764.578 156.777Z" fill="#B7D3F3"/>
<path d="M769.299 183.424C768.252 184.48 768.252 186.193 769.299 187.249C770.355 188.296 772.068 188.296 773.124 187.249C774.181 186.193 774.181 184.48 773.124 183.424C772.068 182.367 770.355 182.367 769.299 183.424Z" fill="#B7D3F3"/>
<path d="M786.267 200.43C785.211 201.486 785.211 203.199 786.267 204.256C787.323 205.312 789.036 205.312 790.093 204.256C791.139 203.199 791.139 201.486 790.093 200.43C789.036 199.383 787.323 199.383 786.267 200.43Z" fill="#B7D3F3"/>
<path d="M810.963 159.47C810.963 157.986 812.171 156.777 813.665 156.777C815.16 156.777 816.368 157.986 816.368 159.47C816.368 160.964 815.16 162.173 813.665 162.173C812.171 162.173 810.963 160.964 810.963 159.47Z" fill="#B7D3F3"/>
<path d="M814.036 159.47H813.294V125.724H814.036V159.47Z" fill="#B7D3F3"/>
<path d="M814.008 160.298L812.637 158.557L830.538 144.51L831.899 146.252L814.008 160.298Z" fill="#B7D3F3"/>
<path d="M1125.75 772.734C1122.47 780.49 1091.09 787.685 1044.49 794.051C1036.28 795.174 1027.61 796.269 1018.52 797.344C859.964 816.016 425.688 826.446 398.918 820.936C361.93 813.332 288.323 441.364 288.323 441.364C288.323 441.364 505.044 437.604 677.155 435.777C736.034 435.159 940.837 433.598 978.818 433.598C1037.64 433.598 1131.02 760.163 1125.75 772.734Z" fill="#B0D4FF"/>
<path d="M1065.75 724.989C1065.75 724.989 999.221 470.113 994.415 448.701C992.284 439.146 985.689 435.701 979.046 434.816C990.732 433.684 999.25 433.607 999.25 433.607C1022.27 433.607 1042.72 449.091 1050.12 472.121C1066.23 522.341 1098.24 618.83 1128.31 713.16C1126.78 713.122 1065.75 724.989 1065.75 724.989Z" fill="#B0D4FF"/>
<path d="M1469.05 950.647C1458.44 1014.58 1389.05 1055.29 1317.87 1055.29H1176.91L1187.83 685.92C1187.83 685.92 1322.43 642.067 1356.22 680.677C1385.8 714.499 1466.06 848.4 1470.28 927.654C1470.71 935.61 1470.27 943.29 1469.05 950.647" fill="#B0D4FF"/>
<path d="M1469.04 950.65C1458.42 1014.58 1389.04 1055.29 1317.86 1055.29H1248.72C1294.83 1025.91 1336.52 935.347 1469.04 950.65Z" fill="#8BB9EF"/>
<path d="M1094.83 722.115C1094.83 722.115 1284.99 630.85 1321.02 690.472C1340.14 722.124 1392.77 848.401 1396.66 927.655C1400.42 1004.66 1329.47 1055.29 1256.48 1055.29H1126.86L1094.83 722.115" fill="#77A4E5"/>
<path d="M1075.81 598.75C1075.81 598.75 1172.03 594.363 1242.56 620.191C1242.56 620.191 1242.56 672.495 1230.59 732.26C1230.59 732.26 1040.53 719.669 1041.19 713.15C1041.85 706.622 1043.45 642.356 1075.81 598.75Z" fill="#26B6A6"/>
<path d="M999.241 673.361C999.241 673.361 1055.9 643.802 1106.27 644.306C1106.27 644.306 1122.21 684.219 1133.2 733.097C1133.2 733.097 1014.81 775.237 1013.22 770.079C1011.63 764.921 993.026 715.444 999.241 673.361" fill="white"/>
<path d="M1345.38 993.076C1343.28 994.76 1341.12 996.417 1338.91 998.043C1311.44 1018.29 1275.62 1034.4 1234.64 1044.38C1203.68 1051.93 1169.77 1055.97 1134.3 1055.67L1072.66 1055.69H1071.82L780.058 1055.76L612.809 1055.81H610.337L610.322 1055.73L604.52 1025.39L551.566 719.254C551.566 719.254 1284.45 702.752 1344.04 736.774C1371.72 752.562 1387.42 817.989 1396.12 890.078C1400.75 928.467 1381.12 964.498 1345.38 993.076" fill="#9FC3F7"/>
<path d="M1345.39 993.074C1343.29 994.758 1341.13 996.414 1338.92 998.041C1311.44 1018.28 1275.62 1034.39 1234.64 1044.38C1203.69 1051.92 1169.78 1055.97 1134.31 1055.66L1072.67 1055.68H1071.83L780.062 1055.76L612.813 1055.81L610.326 1055.73L604.524 1025.38C707.035 1005.57 848.886 985.451 996.852 987.011C1138.17 988.506 1256.49 988.315 1345.39 993.074" fill="#8BB3EE"/>
<path d="M964.914 439.479C963.477 439.023 961.393 437.842 959.613 436.729H998.47C998.47 436.729 983.557 428.288 973.869 423.986C964.172 419.685 940.437 423.986 940.437 423.986C940.437 423.986 852.522 410.91 803.235 412.138C790.007 412.462 695.982 397.14 668.89 402.564C654.609 405.429 641.674 407.694 633.349 409.045C628.268 409.883 623.558 406.209 623.102 401.089L623.094 400.994C621.551 383.236 619.339 373.281 619.339 373.281L586.265 357.274C579.432 360.9 573.045 364.298 569.658 366.106C569.818 367.933 569.933 369.732 569.988 371.502C570.296 380.571 569.329 388.717 567.725 395.817C564.763 408.921 554.582 419.171 541.597 422.616L541.434 422.654C566.228 444 692.372 481.2 694.512 470.294C697.391 455.62 940.437 436.7 940.437 436.7V436.729C940.437 436.729 947.203 439.289 948.888 441.716C950.563 444.133 964.133 443.762 966.665 444.133C969.206 444.514 967.902 440.412 964.914 439.479" fill="#FFB27D"/>
<path d="M1051.18 978.97C1051.18 978.97 1076.82 1025.21 1088.17 1030.42C1097.2 1034.57 1121.6 1038.66 1135.2 1049.13C1150.97 1061.27 1123.66 1060.63 1117.66 1060.63C1117.66 1060.63 1087.1 1056.99 1072.61 1057.29C1064.28 1057.47 1039.42 1060.63 1039.42 1060.63C1019.84 1060.63 1004.93 1042.85 1008.6 1023.61C1008.62 1023.43 1008.66 1023.26 1008.7 1023.08C1012.24 1005.22 1015 982.167 1015 982.167L1051.18 978.97" fill="#D9ECFF"/>
<path d="M731.749 429.829C731.212 441.849 727.864 455.02 717.156 461.976C700.245 472.94 704.528 501.575 704.635 512.815L632.252 409.159C632.252 409.159 652.322 404.029 676.327 401.403C690.941 399.795 729.385 404.201 729.385 404.201C729.385 404.201 732.353 416.277 731.749 429.829" fill="white"/>
<path d="M939.219 997.071C939.219 997.071 964.771 1025.21 976.124 1030.42C984.233 1034.15 1006.07 1036.32 1019.07 1045.76C1032.8 1055.72 1022.28 1060.63 1014.31 1060.63C1014.31 1060.63 977.799 1063.53 954.541 1056.98C948.202 1055.2 930.854 1058.75 924.677 1060.12C922.802 1060.54 910.878 1061.52 908.975 1061.27C894.795 1059.46 894.148 1045.86 895.48 1031.24C895.737 1028.53 896.108 1025.78 896.641 1023.08C900.191 1005.22 902.323 988.601 902.323 988.601L939.219 997.071" fill="white"/>
<path d="M1065.11 981.596C1065.11 981.596 1055.88 988.039 1047.77 990.742C1034.99 995.005 1011.18 993.026 1011.18 993.026C1011.18 993.026 950.382 875.076 937.544 845.242C925.382 816.958 915.208 754.947 915.208 754.947C905.92 754.443 836.458 764.283 775.437 757.679C742.971 754.177 715.516 746.164 706.21 729.766C679.396 682.535 765.054 629.87 765.054 629.87C765.054 629.87 932.519 660.057 969.32 686.779C1004.2 712.113 1065.11 981.596 1065.11 981.596" fill="#1B9284"/>
<path d="M948.336 995.681C948.336 995.681 935.317 1002.49 926.885 1003.92C911.563 1006.52 895.071 1001.4 895.071 1001.4C895.071 1001.4 885.716 944.9 847.373 854.482C837.752 831.804 839.237 785.296 837.942 784.716C837.942 784.716 628.452 786.505 604.122 739.454C600.177 731.831 595.779 710.314 596.265 703.319C598.808 666.109 647.124 651.749 647.124 651.749C647.124 651.749 865.503 690.367 902.989 716.129C940.475 741.881 948.336 995.681 948.336 995.681" fill="#26B6A6"/>
<path d="M782.679 631.421C769.955 654.128 756.705 672.095 707.985 680.527C646.599 691.157 612.964 704.147 595.949 709.286C582.948 713.217 545.563 665.576 527.749 623.065C510.5 581.906 495.817 517.763 495.717 512.815C494.178 436.396 552.274 418.048 552.301 417.848C552.301 417.848 595.442 447.188 618.93 436.995C642.076 426.946 632.55 409.664 632.252 409.159L694.511 470.285C694.511 470.285 708.537 523.94 725.434 562.882C751.047 621.914 786.181 625.169 782.679 631.421" fill="white"/>
<path d="M619.339 373.281C619.339 373.281 621.551 383.236 623.094 400.994C595.022 400.08 572.796 370.969 572.636 369.142C576.023 367.333 579.432 360.9 586.266 357.274L619.339 373.281Z" fill="#ED985F"/>
<path d="M625.885 391.154C625.885 391.154 566.823 389.469 568.437 352.706C570.053 315.943 563.517 290.962 601.295 290.486C639.073 290.001 645.779 304.352 648.225 316.752C650.67 329.162 641.291 390.64 625.885 391.154Z" fill="#FFB27D"/>
<path d="M571.623 367.571C571.623 367.571 569.268 355.352 575.888 347.263C575.888 347.263 571.546 335.291 576.146 332.579C580.747 329.876 583.192 340.106 585.204 338.174C587.217 336.233 596.117 327.135 598.82 315.163C601.521 303.191 642.503 311.594 647.342 313.022C648.148 313.26 649.197 313.193 650.396 312.879C660.659 310.252 663.709 296.929 655.774 289.915C655.291 289.487 654.839 289.059 654.429 288.65C650.096 284.272 619.937 254.856 585.437 269.14C550.935 283.425 548.407 301.173 552.457 315.534C556.507 329.895 556.29 364.669 571.623 367.571" fill="#2B478B"/>
<path d="M613.469 368.561C613.469 368.561 617.307 373.89 625.293 375.299C633.281 376.698 635.03 370.464 635.03 370.464C635.03 370.464 627.702 368.047 613.469 368.561Z" fill="white"/>
<path d="M492.715 484.113C492.715 484.113 484.479 497.217 508.277 531.658C532.076 566.099 636.344 665.719 646.742 657.345C657.14 648.96 670.161 635.989 645.994 603.994C621.827 571.999 544.546 462.481 544.546 462.481L492.715 484.113" fill="#FFB27D"/>
<path d="M601.684 531.287C582.001 542.259 567.541 551.034 537.416 550.967C514.734 550.91 496.043 546.485 496.043 546.485C496.043 546.485 472.746 451.746 516.28 432.247C531.271 425.537 552.302 417.848 552.302 417.848C552.302 417.848 636.932 511.616 601.684 531.287Z" fill="white"/>
<path d="M766.739 458.57L756.858 428.287L706.404 513.471L721.745 537.977L766.739 458.57" fill="#163560"/>
<path d="M684.493 459.312L637.201 540.518L721.745 537.977L766.739 458.57L684.493 459.312" fill="#1C468A"/>
<path d="M639.665 536.445L638.724 533.685L683.474 456.828L684.493 459.312L639.665 536.445Z" fill="#EFDECE"/>
<path d="M683.474 456.828L763.189 456.704L766.739 458.57L684.493 459.312L683.474 456.828" fill="#FCECDB"/>
<path d="M766.739 458.57L755.37 429.382L739.25 456.742L763.189 456.704L766.739 458.57Z" fill="#EFDECE"/>
<path d="M728.563 537.339C728.563 537.339 744.574 526.795 752.801 521.751C761.029 516.707 758.643 479.002 754.859 479.535C754.859 479.535 749.01 490.194 746.976 492.687C739.51 501.842 723.641 506.153 717.856 514.813C707.254 530.668 728.563 537.339 728.563 537.339" fill="#FFB27D"/>
<path d="M713.421 518.82C713.421 518.82 716.551 507.466 715.949 505.573C715.347 503.679 721.974 494.038 723.38 490.422C724.786 486.815 726.606 481.267 728.533 483.76C730.46 486.254 729.919 491.383 728.533 495.295C727.145 499.215 730.761 505.297 730.761 505.297L726.242 513.015L713.421 518.82Z" fill="#FFB27D"/>
<path d="M718.169 513.89C718.169 513.89 641.53 590.328 632.252 602.747C622.972 615.176 640.588 658.011 643.665 657.677C646.742 657.344 681.215 626.196 693.668 600.235C706.119 574.264 729.014 536.644 729.014 536.644L718.169 513.89" fill="#FFB27D"/>
<path d="M755.004 953.998C743.571 1016 680.846 1055.29 616.549 1055.29H486.916L497.057 682.659C497.057 682.659 620.74 642.07 651.806 680.679C679.024 714.502 752.83 848.401 756.716 927.656C757.161 936.83 756.559 945.623 755.004 953.998" fill="#D2E3FC"/>
<path d="M755.004 953.998C743.571 1016 680.846 1055.29 616.549 1055.29H512.813C561.37 1024.35 626.75 938.848 755.004 953.998" fill="#AFCDFB"/>
<path d="M680.824 956.587C675.668 981.073 662.494 1001.9 644.462 1018.04H644.454C633.694 1027.67 621.197 1035.61 607.635 1041.67C590.973 1049.12 572.696 1053.71 554.039 1055.03C553.072 1055.08 552.105 1055.15 551.138 1055.2C550.369 1055.24 549.593 1055.27 548.823 1055.29C547.536 1055.35 546.249 1055.39 544.962 1055.4C544.284 1055.41 543.599 1055.42 542.906 1055.42H413.274L413.267 1055.35C410.807 1055.39 408.302 1055.42 405.781 1055.45C392.439 1055.6 378.496 1055.74 365.566 1055.85C363.395 1055.87 361.264 1055.88 359.161 1055.9C358.377 1055.91 357.593 1055.91 356.832 1055.91C344.054 1056 332.753 1056.04 324.696 1055.98C313.364 1055.91 302.68 1055.16 292.636 1053.66C279.675 1051.72 267.788 1048.57 256.906 1044.04C254.964 1043.24 253.052 1042.39 251.18 1041.49C249.268 1040.58 247.387 1039.63 245.544 1038.62C240.625 1035.96 235.934 1032.95 231.487 1029.61C219.988 1020.98 210.043 1010.04 201.582 996.585C195.695 987.23 190.517 976.648 186.04 964.752C180.55 950.201 176.118 933.699 172.676 915.084C172.584 914.608 172.493 914.142 172.409 913.657C170.855 905.111 169.507 896.118 168.365 886.677C167.848 882.366 167.367 877.979 166.933 873.487C165.388 857.623 164.368 840.569 163.842 822.268C163.796 820.679 163.758 819.071 163.72 817.462C163.713 817.101 163.705 816.739 163.697 816.387C163.377 801.845 163.362 786.552 163.644 770.431C163.766 763.379 163.949 756.175 164.185 748.8C164.291 745.45 164.413 742.071 164.543 738.655C165.205 721.525 166.164 703.586 167.399 684.8C167.954 676.359 168.563 667.756 169.233 658.972C171.99 622.799 175.722 583.685 180.351 541.46C185.598 493.543 191.652 460.045 200.455 452.412C213.438 441.154 240.526 436.624 259.373 434.816H259.389C271.078 433.684 279.584 433.607 279.584 433.607C280.003 433.607 280.421 433.617 280.84 433.617C281.137 433.626 281.434 433.636 281.731 433.646C282.448 433.684 283.163 433.722 283.871 433.788C284.267 433.817 284.671 433.855 285.067 433.902C285.333 433.921 285.592 433.95 285.851 433.988C286.247 434.036 286.643 434.093 287.032 434.15C287.732 434.255 288.425 434.378 289.118 434.502C289.59 434.597 290.069 434.692 290.542 434.797C290.581 434.797 290.625 434.816 290.663 434.826C291.007 434.902 291.349 434.978 291.692 435.063C292.347 435.216 292.994 435.397 293.633 435.577C294.075 435.711 294.509 435.834 294.944 435.968C295.247 436.072 295.545 436.167 295.85 436.272C299.452 437.49 302.901 439.099 306.16 441.059C317.332 447.797 326.127 458.722 330.452 472.236C345.5 519.257 372.358 603.328 400.313 691.262C400.45 691.7 400.595 692.147 400.732 692.585C402.34 697.638 403.946 702.71 405.56 707.773C405.72 708.287 405.88 708.81 406.048 709.315C406.131 709.572 406.215 709.838 406.299 710.095C407.875 709.429 409.505 708.734 411.196 708.049C411.249 708.011 411.302 707.992 411.371 707.973C418.072 705.175 425.657 702.111 433.843 698.999H433.85C438.092 697.381 442.486 695.735 447.025 694.107C459.818 689.501 473.624 684.943 487.62 681.022C493.827 679.271 500.087 677.634 506.301 676.197C514.281 674.341 522.201 672.761 529.923 671.6C530.189 671.553 530.403 671.524 530.593 671.496C531.506 671.353 532.412 671.229 533.318 671.105C538.764 670.354 544.087 669.811 549.242 669.516H549.249C575.613 667.994 597.446 672.952 607.437 689.53C611.168 695.725 616.179 705.537 621.86 717.918C633.595 743.499 648.177 780.043 660.187 818.186C672.119 856.071 681.517 895.528 683.078 927.408C683.58 937.62 682.773 947.355 680.824 956.587" fill="#77A4E5"/>
<path d="M346.098 724.989C346.098 724.989 279.563 470.113 274.76 448.701C272.623 439.146 266.028 435.701 259.384 434.816C271.078 433.684 279.587 433.607 279.587 433.607C302.608 433.607 323.067 449.091 330.455 472.121C346.568 522.341 376.241 614.957 406.298 709.286C404.778 709.248 346.098 724.989 346.098 724.989" fill="#D2E3FC"/>
<path d="M302.456 886.601C302.456 886.601 275.23 854.834 300.777 834.659C300.777 834.659 319.438 823.363 334.653 824.276C334.653 824.276 313.093 860.43 320.068 864.027C327.044 867.625 341.187 822.011 341.187 822.011C341.187 822.011 383.653 817.891 397.313 824.467C397.313 824.467 361.01 854.168 368.656 855.938C376.302 857.708 415.512 828.549 415.512 828.549C415.512 828.549 455.036 835.278 452.928 859.383C450.82 883.499 437.203 890.941 431.217 890.293C425.232 889.656 390.219 876.294 389.457 881.196C388.694 886.097 409.769 902.123 424.528 902.874C424.528 902.874 396.664 933.604 378.145 924.734C359.626 915.865 358.045 901.809 346.501 896.536C334.958 891.264 325.103 891.283 329.869 896.66C334.635 902.037 355.527 907.262 362.129 918.939C368.73 930.616 374.654 938.486 355.495 935.612C336.334 932.728 305.19 918.701 303.823 902.656C302.456 886.601 302.456 886.601 302.456 886.601" fill="#82B378"/>
<path d="M433.509 860.031C433.509 860.031 326.163 855.9 302.457 886.601C302.457 886.601 297.213 902.304 281.08 916.598L278.566 923.45C278.566 923.45 297.167 903.836 303.823 902.656C303.823 902.656 293.414 864.618 433.509 860.031Z" fill="#82B378"/>
<path d="M281.08 916.598C281.08 916.598 258.039 933.642 256.438 964.086L260.621 964.457C260.621 964.457 267.979 932.976 281.281 920.661C294.581 908.356 281.08 916.598 281.08 916.598Z" fill="#82B378"/>
<path d="M207.266 846.65C207.266 846.65 250.574 822.401 230.364 789.483C230.364 789.483 214.195 769.27 196.872 764.074C196.872 764.074 206.11 813.161 196.872 814.312C187.633 815.473 190.519 758.878 190.519 758.878C190.519 758.878 144.901 736.932 127 738.664C127 738.664 155.295 786.6 146.056 785.439C136.817 784.287 105.057 735.781 105.057 735.781C105.057 735.781 58.2833 727.121 50.7765 754.843C43.2688 782.555 55.3959 796.411 62.325 798.143C69.255 799.875 113.719 799.304 112.563 805.072C111.409 810.848 81.3812 820.089 64.6356 814.893C64.6356 814.893 83.1141 860.516 107.366 858.203C131.62 855.891 139.126 840.883 154.14 839.722C169.154 838.57 180.126 842.615 172.618 846.65C165.112 850.695 139.704 847.973 127.577 858.289C115.451 868.595 105.634 874.953 128.155 879.568C150.676 884.184 191.097 881.3 199.181 863.98C207.266 846.65 207.266 846.65 207.266 846.65" fill="#A8D29F"/>
<path d="M72.1426 763.503C72.1426 763.503 193.407 802.769 207.266 846.65C207.266 846.65 206.688 866.283 218.815 888.809V897.469C218.815 897.469 206.111 868.015 199.182 863.98C199.182 863.98 226.322 825.866 72.1426 763.503" fill="#82B378"/>
<path d="M218.815 888.809C218.815 888.809 237.516 917.207 226.855 951.771L222.043 950.486C222.043 950.486 226.713 912.41 216.929 893.253C207.145 874.106 218.815 888.809 218.815 888.809" fill="#82B378"/>
<path d="M276.168 813.208C276.168 813.208 219.078 781.232 245.719 737.846C245.719 737.846 267.033 711.209 289.869 704.357C289.869 704.357 277.689 769.051 289.869 770.574C302.047 772.096 298.242 697.505 298.242 697.505C298.242 697.505 358.376 668.574 381.972 670.858C381.972 670.858 344.674 734.039 356.853 732.517C369.032 730.994 410.898 667.051 410.898 667.051C410.898 667.051 472.554 655.641 482.449 692.175C492.345 728.71 476.359 746.982 467.225 749.266C458.091 751.55 399.48 750.789 401.002 758.402C402.524 766.015 442.106 778.187 464.181 771.335C464.181 771.335 439.823 831.471 407.853 828.426C375.883 825.38 365.987 805.595 346.196 804.072C326.406 802.55 311.943 807.879 321.838 813.208C331.734 818.528 365.227 814.95 381.211 828.54C397.196 842.13 410.137 850.504 380.45 856.595C350.764 862.686 297.48 858.879 286.823 836.039C276.168 813.208 276.168 813.208 276.168 813.208Z" fill="#A8D29F"/>
<path d="M454.285 703.596C454.285 703.596 294.436 755.357 276.168 813.209C276.168 813.209 276.928 839.084 260.943 868.767V880.187C260.943 880.187 277.689 841.368 286.823 836.039C286.823 836.039 251.048 785.801 454.285 703.596Z" fill="#82B378"/>
<path d="M260.943 868.767C260.943 868.767 236.292 906.205 250.346 951.771L256.688 950.068C256.688 950.068 250.532 899.877 263.429 874.639C276.327 849.391 260.943 868.767 260.943 868.767Z" fill="#82B378"/>
<path d="M386.07 938.762C386.07 1000.53 336.003 1050.59 274.243 1050.59C261.348 1050.59 248.965 1048.41 237.441 1044.39C193.759 1029.17 162.416 987.63 162.416 938.762H386.07" fill="#0FAE96"/>
<path d="M312.461 938.762C312.461 980.664 302.425 1023.34 268.32 1042.48C262.651 1045.67 243.667 1042.22 237.441 1044.39C193.759 1029.17 162.416 987.63 162.416 938.762H312.461Z" fill="#26B6A6"/>
<path d="M387.616 1056.28H160.87C160.87 1052.48 162.416 1049.02 164.911 1046.53C167.407 1044.03 170.859 1042.48 174.67 1042.48H373.822C381.439 1042.48 387.616 1048.66 387.616 1056.28Z" fill="#0FAE96"/>
<path d="M281.376 1056.28H160.87C160.87 1052.48 162.416 1049.02 164.911 1046.53C167.407 1044.03 170.859 1042.48 174.67 1042.48H267.583C275.199 1042.48 281.376 1048.66 281.376 1056.28Z" fill="#26B6A6"/>
<path d="M388.616 942.188H158.738V938.762H388.616V942.188" fill="#B5453C"/>
<path d="M1679.47 700.618C1679.47 700.618 1707.92 667.444 1681.23 646.364C1681.23 646.364 1661.74 634.564 1645.84 635.525C1645.84 635.525 1668.37 673.287 1661.08 677.046C1653.8 680.795 1639.03 633.155 1639.03 633.155C1639.03 633.155 1594.66 628.853 1580.39 635.715C1580.39 635.715 1618.31 666.74 1610.33 668.595C1602.34 670.442 1561.38 639.979 1561.38 639.979C1561.38 639.979 1520.09 647.002 1522.29 672.193C1524.5 697.374 1538.73 705.158 1544.98 704.483C1551.23 703.816 1587.8 689.855 1588.61 694.975C1589.4 700.095 1567.38 716.844 1551.97 717.625C1551.97 717.625 1581.07 749.725 1600.42 740.455C1619.76 731.196 1621.41 716.511 1633.47 711.002C1645.53 705.492 1655.82 705.51 1650.84 711.125C1645.86 716.739 1624.04 722.202 1617.15 734.403C1610.24 746.603 1604.05 754.826 1624.07 751.818C1644.08 748.802 1676.62 734.155 1678.05 717.387C1679.47 700.618 1679.47 700.618 1679.47 700.618" fill="#C8DBF4"/>
<path d="M1542.59 672.865C1542.59 672.865 1654.72 668.544 1679.48 700.615C1679.48 700.615 1684.97 717.013 1701.82 731.954L1704.45 739.11C1704.45 739.11 1685.02 718.621 1678.06 717.384C1678.06 717.384 1688.94 677.651 1542.59 672.865" fill="#C8DBF4"/>
<path d="M1701.82 731.957C1701.82 731.957 1725.89 749.754 1727.55 781.558L1723.18 781.949C1723.18 781.949 1715.49 749.069 1701.6 736.211C1687.7 723.345 1701.82 731.957 1701.82 731.957" fill="#C8DBF4"/>
<path d="M1830.12 613.337C1830.12 613.337 1784.88 588.003 1805.98 553.619C1805.98 553.619 1822.87 532.505 1840.98 527.076C1840.98 527.076 1831.33 578.344 1840.98 579.553C1850.62 580.761 1847.61 521.646 1847.61 521.646C1847.61 521.646 1895.26 498.724 1913.96 500.533C1913.96 500.533 1884.4 550.602 1894.07 549.394C1903.71 548.185 1936.88 497.517 1936.88 497.517C1936.88 497.517 1985.75 488.47 1993.59 517.424C2001.43 546.377 1988.76 560.852 1981.52 562.67C1974.29 564.478 1927.84 563.869 1929.04 569.902C1930.25 575.936 1961.62 585.586 1979.11 580.161C1979.11 580.161 1959.81 627.812 1934.47 625.404C1909.13 622.986 1901.29 607.303 1885.61 606.095C1869.92 604.886 1858.46 609.112 1866.31 613.337C1874.15 617.563 1900.7 614.717 1913.35 625.489C1926.03 636.252 1936.29 642.896 1912.76 647.72C1889.24 652.545 1847.02 649.529 1838.56 631.428C1830.12 613.337 1830.12 613.337 1830.12 613.337" fill="#C8DBF4"/>
<path d="M1971.26 526.478C1971.26 526.478 1844.59 567.501 1830.1 613.342C1830.1 613.342 1830.71 633.85 1818.04 657.375V666.426C1818.04 666.426 1831.32 635.658 1838.55 631.433C1838.55 631.433 1810.2 591.625 1971.26 526.478" fill="#C8DBF4"/>
<path d="M1818.05 657.373C1818.05 657.373 1798.5 687.037 1809.65 723.153L1814.67 721.801C1814.67 721.801 1809.8 682.021 1820.02 662.017C1830.24 642.013 1818.05 657.373 1818.05 657.373" fill="#C8DBF4"/>
<path d="M1758.13 578.396C1758.13 578.396 1817.76 545.004 1789.94 499.68C1789.94 499.68 1767.67 471.85 1743.82 464.694C1743.82 464.694 1756.54 532.282 1743.82 533.872C1731.09 535.462 1735.07 457.538 1735.07 457.538C1735.07 457.538 1672.26 427.322 1647.61 429.708C1647.61 429.708 1686.57 495.704 1673.85 494.114C1661.12 492.523 1617.39 425.732 1617.39 425.732C1617.39 425.732 1552.98 413.806 1542.65 451.972C1532.31 490.139 1549.01 509.222 1558.55 511.608C1568.1 513.994 1629.31 513.198 1627.72 521.15C1626.14 529.101 1584.78 541.823 1561.73 534.667C1561.73 534.667 1587.18 597.487 1620.57 594.299C1653.97 591.12 1664.31 570.45 1684.98 568.861C1705.64 567.271 1720.76 572.839 1710.42 578.396C1700.09 583.964 1665.1 580.224 1648.41 594.423C1631.7 608.611 1618.19 617.357 1649.2 623.724C1680.21 630.082 1735.86 626.104 1747 602.255C1758.13 578.396 1758.13 578.396 1758.13 578.396" fill="#D4E4F8"/>
<path d="M1572.07 463.893C1572.07 463.893 1739.07 517.963 1758.14 578.391C1758.14 578.391 1757.34 605.428 1774.04 636.443V648.367C1774.04 648.367 1756.56 607.816 1747.01 602.25C1747.01 602.25 1784.38 549.765 1572.07 463.893Z" fill="#D4E4F8"/>
<path d="M1774.04 636.448C1774.04 636.448 1799.79 675.553 1785.11 723.155L1778.47 721.375C1778.47 721.375 1784.91 668.938 1771.44 642.577C1757.95 616.207 1774.04 636.448 1774.04 636.448Z" fill="#D4E4F8"/>
<path d="M2308.91 1056.09L1686.35 1052.78C1593.93 946.385 1584.2 806.005 1707.68 685.515C1723.22 670.364 1752.95 659.678 1784.99 652.179C1844.05 638.35 1910.98 635.334 1911.5 635.057C1911.71 634.982 1946.96 606.583 1968.21 581.021C2034.2 501.631 2090.12 508.648 2090.12 508.648C2157.18 495.819 2214.35 492.171 2256.65 515.895C2256.65 515.907 2256.65 515.907 2256.67 515.918C2295.85 537.928 2322.29 583.449 2331.97 666.986C2333.81 682.784 2335.04 699.942 2335.65 718.556C2337.87 786.335 2351.03 846.651 2358.81 897.727V897.737C2370.08 971.719 2370 1026.3 2308.91 1056.09" fill="#26B6A6"/>
<path d="M2223.18 600.923C2182.44 622.944 2177.72 695.907 2114.01 714.542C2050.31 733.194 1942.28 731.129 1880.77 797.413C1821.46 861.355 1756.76 697.983 1784.99 652.178C1844.06 638.351 1910.98 635.334 1911.51 635.058C1911.71 634.983 1946.96 606.585 1968.21 581.023C2034.21 501.633 2090.12 508.649 2090.12 508.649C2157.18 495.821 2214.35 492.173 2256.65 515.896C2256.65 515.908 2256.65 515.908 2256.67 515.92C2278.1 539.449 2263.91 578.911 2223.18 600.923" fill="#0FAE96"/>
<path d="M1973.51 621.113C1973.51 621.113 1769.43 617.867 1742.21 635.187C1714.98 652.507 1769.43 929.025 1769.43 929.025C1769.43 929.025 1822.21 930.71 1826.41 916.739C1826.41 916.739 1816.9 787.168 1825.21 764.786C1833.52 742.403 1828.41 711.387 1828.41 711.387C1828.41 711.387 1931.63 727.138 1964.41 719.381C1997.19 711.625 1973.51 621.113 1973.51 621.113" fill="#233862"/>
<path d="M2021.12 478.403C2021.09 478.561 1992.21 545.262 1978.19 552.337C1964.17 559.408 1913.34 617.498 1902.48 616.451C1891.61 615.403 1915.17 625.32 1915.17 625.32C1915.17 625.32 2003.85 584.732 2009.01 582.199C2014.17 579.658 2041.42 535.111 2045.2 512.467C2048.99 489.821 2021.12 478.403 2021.12 478.403" fill="#FFB27D"/>
<path d="M1780.6 914.969C1780.6 914.969 1792.21 946.07 1789.75 957.604C1787.28 969.138 1791.27 991.502 1786.54 1001.5C1781.82 1011.5 1773.39 1026.04 1781.47 1029.72C1784.55 1031.11 1820.28 1003.4 1822.34 995.214C1824.38 987.039 1825.97 962.914 1832.81 949.81C1839.65 936.705 1833.92 926.142 1824.03 921.326C1814.15 916.511 1800.37 890.131 1800.37 890.131L1780.6 914.969Z" fill="white"/>
<path d="M1745.94 966.171C1745.94 966.171 1734.75 997.422 1725.42 1004.65C1716.1 1011.87 1704.7 1031.52 1694.64 1036.12C1684.58 1040.7 1668.77 1046.38 1672.58 1054.41C1674.01 1057.45 1719.2 1059.34 1726.03 1054.41C1732.87 1049.48 1749.67 1032.07 1763.34 1026.48C1777.02 1020.88 1779.46 1009.11 1775.02 999.05C1770.57 988.99 1777.07 959.956 1777.07 959.956L1745.94 966.171" fill="white"/>
<path d="M2079.81 448.926C2075.68 444.114 2141.35 424.511 2155.2 478.406C2155.2 478.406 2276.06 446.625 2201.95 392.612C2176.31 373.913 2173.79 354.027 2170.12 335.831C2166.45 317.628 2140.94 265.287 2096.37 291.104C2096.37 291.104 2076.03 291.135 2063.12 302.248C2033.79 327.521 2001.35 488.594 2079.81 448.926Z" fill="#163560"/>
<path d="M2058.74 630.83C2058.74 630.83 1847.06 651.748 1828.4 673.294C1809.73 694.85 1735.84 975.524 1735.84 975.524C1735.84 975.524 1757.41 987.621 1777.07 976.428C1777.07 976.428 1833.32 881.301 1858.18 851.456C1883.03 821.612 1892.56 729.281 1896.67 728.349C1900.76 727.415 2033.32 747.239 2079.08 712.313C2124.84 677.396 2058.74 630.83 2058.74 630.83" fill="#2A4E96"/>
<path d="M2177.14 439.13C2177.14 439.13 2126.73 416.434 2062.69 426.567C2049.59 428.638 2037.8 432.905 2028.41 448.286C2015.12 470.012 2008.91 481.682 2008.91 481.682C2008.91 481.682 2010.15 491.773 2028.18 499.855C2023.21 517.887 2032.54 549.432 2023.83 561.634C2015.12 573.843 1961.25 604.02 1958.54 620.875C1953.56 651.852 2050.19 708.305 2079.09 702.386C2162.19 685.36 2219.23 462.983 2177.14 439.13" fill="white"/>
<path d="M2148.76 375.201C2148.76 375.201 2158.76 355.65 2160.13 339.588C2161.1 328.122 2151.53 286.823 2110.04 296.688C2110.04 296.688 2097.95 299.005 2087.18 307.803C2078.63 314.8 2066.67 329.308 2084.73 364.46L2089.68 376.438L2148.76 375.201" fill="#163560"/>
<path d="M2091.73 441.088C2087.52 445.496 2089.13 460.197 2108.74 459.153C2121.62 458.467 2149.28 442.625 2146.72 431.617C2145.51 426.382 2135.65 412.864 2133.4 381.828L2131.06 382.477L2091.73 393.41C2091.73 393.41 2093.58 405.911 2094.5 417.75C2095.29 427.69 2093.47 439.265 2091.73 441.088" fill="#FFB27D"/>
<path d="M2091.73 393.409C2091.73 393.409 2093.58 405.91 2094.51 417.748C2116.82 415.426 2127.09 394.141 2131.06 382.474L2091.73 393.409" fill="#F4A269"/>
<path d="M2090.83 411.581C2090.83 411.581 2142.31 398.788 2133.84 366.856C2125.39 334.924 2126.33 311.767 2093.11 318.585C2059.89 325.403 2056.75 339.273 2056.98 350.619C2057.22 361.963 2077.22 414.086 2090.83 411.581" fill="#FFB27D"/>
<path d="M2069.56 324.01C2069.56 324.01 2086.75 356.967 2119.32 360.604C2138.37 362.731 2143.57 375.309 2143.57 375.309C2143.57 375.309 2137.95 339.378 2128.43 317.384C2128.43 317.384 2075.41 303.368 2069.56 324.01" fill="#163560"/>
<path d="M2075.44 328.385C2075.44 328.385 2064.15 339.847 2060.64 347.942C2055.46 359.929 2065.43 385.242 2069.56 390.703C2069.56 390.703 2045.74 350.025 2053.79 332.464C2062.33 313.841 2075.44 328.385 2075.44 328.385" fill="#163560"/>
<path d="M1917.72 624.145C1917.72 624.145 1907.45 634.965 1906.21 635.545C1899.42 638.695 1890.88 636.82 1886.74 637.847C1882.6 638.876 1883.33 636.307 1886.38 634.232C1889.42 632.147 1896.94 632.984 1893.87 632.213C1890.8 631.444 1874.26 628.312 1868.01 629.969C1858.14 632.576 1850.36 629.454 1849.74 628.446C1849.13 627.427 1872.32 616.178 1878.93 616.578C1885.54 616.978 1904.57 616.121 1904.57 616.121L1917.72 624.145" fill="#FFB27D"/>
<path d="M2194.48 459.183C2194.48 459.183 2257.84 603.459 2240.06 624.567C2222.39 645.513 2099.65 619.609 2099.65 619.609L2103.48 606.238C2103.48 606.238 2193.81 600.995 2200.26 599.195C2209.51 596.608 2154.83 495.387 2154.83 495.387L2194.48 459.183Z" fill="#FFB27D"/>
<path d="M2170.74 436.744C2172.26 436.787 2191.32 443.101 2204.94 470.253C2218.32 496.921 2223.18 509.864 2223.18 509.864C2223.18 509.864 2163.37 555.947 2139.69 538.843C2116 521.746 2148.84 436.115 2170.74 436.744" fill="white"/>
<path d="M2114.02 605.611C2114.02 605.611 2103.79 598.93 2099.65 595.285C2095.51 591.631 2071.49 588.595 2071.49 591.022C2071.49 593.458 2085.48 596.798 2086.99 599.235C2088.52 601.662 2097.03 611.692 2104.33 611.692C2111.61 611.692 2114.02 605.611 2114.02 605.611Z" fill="#FFB27D"/>
<path d="M1968.02 521.496L1986.05 488.952L2025.08 597.838L2002.05 622.554L1968.02 521.496" fill="#163560"/>
<path d="M2062.22 540.553L2098.49 644.171L2002.06 622.548L1968.03 521.492L2062.22 540.553" fill="#1C468A"/>
<path d="M2096.56 638.948L2098.26 635.998L2063.93 537.934L2062.22 540.555L2096.56 638.948Z" fill="#EFDECE"/>
<path d="M2063.93 537.934L1972.51 520.145L1968.03 521.494L2062.21 540.554L2063.93 537.934Z" fill="#FCECDB"/>
<path d="M1968.03 521.492L1987.54 490.531L1999.97 525.485L1972.52 520.144L1968.03 521.492Z" fill="#EFDECE"/>
<path d="M2099.63 619.613C2099.63 619.613 2081.02 619.812 2076.34 618.689C2071.68 617.566 2059.81 602.731 2062.98 599.038C2065 596.706 2076.12 600.931 2081.41 600.931C2086.72 600.931 2100.51 593.308 2109.89 609.021C2110.94 610.79 2099.63 619.613 2099.63 619.613Z" fill="#FFB27D"/>
<path d="M2179.45 655.3C2179.45 655.3 2159.33 674.019 2075.44 676.446C1991.54 678.882 1881.89 771.241 1880.77 797.412C1879.66 823.573 2049.49 863.886 2052.13 860.146C2054.77 856.405 2160.18 766.426 2160.18 766.426L2179.45 655.3" fill="#26B6A6"/>
<path d="M2358.81 897.725C2313.87 816.283 2210.42 928.151 2184.88 890.141C2159.35 852.111 2221.36 804.12 2277.3 762.779C2332.08 722.276 2332 669.135 2331.97 666.984C2333.82 682.782 2335.05 699.941 2335.66 718.554C2337.87 786.332 2351.04 846.649 2358.81 897.725Z" fill="#0FAE96"/>
</svg>
