<svg viewBox="0 0 613 587" fill="none" xmlns="http://www.w3.org/2000/svg">
<g clip-path="url(#clip0_3_2)">
<path d="M92.1625 540.467C-26.786 478.529 -26.7875 378.108 92.1604 316.169C211.108 254.232 403.961 254.232 522.911 316.169C641.86 378.108 641.86 478.529 522.912 540.467C403.965 602.406 211.111 602.406 92.1625 540.467Z" fill="#4A5568"/>
<path d="M560.12 368.967C591.847 387.284 591.847 416.983 560.12 435.3C528.393 453.617 476.955 453.617 445.228 435.3C413.503 416.983 413.503 387.284 445.229 368.968C476.956 350.649 528.395 350.649 560.12 368.967Z" fill="#2D3748"/>
<path d="M175.484 374.293C206.568 392.24 207.831 421.868 176.745 439.815C145.661 457.761 94.0022 457.229 62.9183 439.284C31.8339 421.337 31.8345 392.24 62.9183 374.293C94.0027 356.347 144.401 356.347 175.484 374.293Z" fill="#2D3748"/>
<path d="M429.021 471L326.993 412.095C323.807 410.253 318.636 410.253 315.448 412.095L213.423 471C210.235 472.84 210.235 475.825 213.423 477.667L259.892 504.495L216.492 529.539C207.676 534.628 193.331 534.624 184.515 529.535L116.251 490.122C112.484 487.947 110.41 485.217 110.41 482.434C110.41 479.648 112.484 476.916 116.251 474.741L176.745 439.815C178.021 439.077 178.457 437.447 177.723 436.171C176.984 434.896 175.353 434.457 174.079 435.195L113.584 470.122C108.097 473.289 105.077 477.663 105.077 482.434C105.077 487.203 108.098 491.573 113.584 494.741L181.848 534.155C187.08 537.175 193.793 538.684 200.508 538.684C207.219 538.684 213.929 537.175 219.159 534.159L265.227 507.575L315.448 536.571C318.636 538.412 323.807 538.412 326.993 536.571L429.021 477.667C432.208 475.825 432.208 472.84 429.021 471Z" fill="#2D3748"/>
<path d="M545.612 380.104C545.612 380.104 549.315 325.2 548.224 304.951C547.36 288.907 545.18 282.295 544.725 278.676C544.725 278.676 540.797 241.273 540.472 209.488C540.316 194.191 538.899 183.301 530.519 165.113L476.605 178.011C475.511 186.089 471.807 239.823 470.932 287.599C470.165 329.423 471.359 366.043 471.359 366.043L471.413 368.244C471.413 370.688 470.876 372.396 469.305 376.319C467.712 380.292 464.807 385.979 460.955 390.133C459.845 391.331 452.157 398.057 451.143 399.491C447.84 403.343 454.683 405.513 459.763 404.835C465.124 404.12 473.451 402.084 475.812 398.819C477.385 396.644 478.567 389.025 480.184 386.82C485.639 379.385 487.877 376.188 487.917 373.811C487.989 369.519 486.513 367.82 485.987 365.396C486.427 360.332 497.363 318.657 497.551 303.905C497.643 296.875 497.167 287.193 497.167 287.193L505.653 238.501C508.931 250.659 514.692 280.857 516.629 292.444C518.999 306.597 525.172 342.941 528.82 364.625C530.227 372.989 530.881 377.211 531.523 381.087L531.681 382.748C531.796 384.844 533.327 407.387 534.155 412.105C535.888 421.963 544.651 420.723 546.053 412.749C547.247 405.965 545.753 384.96 545.72 382.384L545.612 380.104Z" fill="#F6879F"/>
<path d="M545.612 380.104C548.084 380.145 546.459 389.715 547.096 395.869C547.78 402.468 549.943 407.287 550.561 412.697C551.269 418.879 550.719 421.468 548.501 426.551C546.777 430.501 538.116 435.919 534.828 430.267C531.5 424.547 530.827 418.159 531.205 412.003C531.596 405.641 531.205 401.703 531.333 396.864C531.448 392.6 528.32 381.699 531.523 381.087L531.681 382.748C532.831 385.047 544.54 385.505 545.72 382.384L545.612 380.104Z" fill="#33535F"/>
<path d="M488.439 379.005C489.196 382.089 488.412 390.543 488.412 390.543C488.412 390.543 487.077 393.459 482.319 395.4L480.184 383.641L488.439 379.005Z" fill="#17282F"/>
<path d="M482.319 395.4L471.831 391.957L469.305 382.649L481.088 388.613L482.319 395.4Z" fill="#040606"/>
<path d="M471.413 368.244L471.359 366.043C469.935 366.735 466.799 378.207 462.56 386.076C458.689 393.261 451.019 397.265 448.529 400.392C445.197 404.575 451.672 409.967 462.065 407.744C467.224 406.64 475.036 403.34 477.152 399.86C479.271 396.379 479.987 389.984 481.719 387.425C483.451 384.867 487.565 381.919 488.439 379.005C488.919 377.405 489.303 373.853 488.417 370.964C487.603 368.313 486.892 365.107 485.987 365.396L485.927 367.412C485.231 368.831 482.72 370.481 477.472 370.765C474.976 370.9 472.556 370.519 471.413 368.244Z" fill="#33535F"/>
<path d="M475.575 177.359C475.575 177.359 472.011 216.913 470.864 251.948C469.715 286.984 470.743 332.175 470.743 332.175C470.743 332.175 474.359 334.761 482.319 335.119C490.279 335.476 493.033 332.823 493.033 332.823C493.033 332.823 497.896 316.947 498.657 305.775C499.42 294.601 498.657 287.6 498.657 287.6L505.765 240.856C505.765 240.856 514.779 286.879 515.803 292.444C516.824 298.008 525.464 347.177 525.464 347.177C525.464 347.177 528.855 350.308 537.547 350.143C545.229 349.997 547.464 347.24 547.464 347.24C547.464 347.24 549.316 317.081 548.893 304.196C548.523 292.841 545.929 283.795 545.411 276.431C544.892 269.067 544.589 227.113 544.071 211.141C543.552 195.171 542.117 181.292 528.471 162.071L475.575 177.359Z" fill="#33535F"/>
<path d="M505.765 240.856L499.855 211.575C499.855 211.575 489.537 208.883 484.729 202.583C484.729 202.583 486.067 209.567 496.671 214.032L502.964 243.205L500.824 273.347L505.765 240.856Z" fill="#273E47"/>
<path d="M400.252 170.029C405.688 171.131 411.596 169.189 411.596 169.189C409.567 168.045 407.989 167.105 407.103 166.211C405.339 164.435 405.952 162.588 406.573 161.915C407.056 161.391 408.283 162.625 411.059 163.412C414.604 164.417 417.176 164.623 420.596 166.596C421.871 167.332 423.387 167.625 424.863 167.348C433.188 165.779 452.588 156.693 461.471 151.929C463.295 144.537 466.432 133.649 470.319 120.083C473.903 107.575 479.664 102.101 488.817 102.311L487.551 129.464C487.551 129.464 483.184 148.225 477.771 163.541C476.817 166.239 473.023 169.323 466.065 171.908C457.052 175.255 446.171 178.407 432.877 182.045C427.908 183.405 421.339 184.835 416.369 185.259C402.316 186.459 396.931 182.551 395.012 179.828C389.652 172.224 392.883 168.537 400.252 170.029Z" fill="#F6879F"/>
<path d="M512.464 102.101L525.289 103.096C521.799 121.797 534.937 131.807 534.937 131.807L529.219 154.857C529.408 157.701 534.132 167.301 538.707 177.631C530.105 189.147 487.917 193.079 474.157 182.973C476.281 172.117 477.867 163.872 478.287 159.757L477.591 144.865C460.347 130.713 481.159 109.163 488.817 102.311L498.449 101.881L512.464 102.101Z" fill="#26B6A6"/>
<path d="M566.475 216.887C564.597 215.587 563.513 212.86 563.733 210.708C563.955 208.556 564.452 205.861 565.335 204.82C566.217 203.78 571.832 196.172 574.315 200.6C577.024 205.431 576.437 207.38 576.437 207.38L566.475 216.887Z" fill="#F47089"/>
<path d="M549.201 318.641C543.92 318.641 538.133 316.913 532.199 313.487L465.627 275.052C455.343 269.112 446.973 254.619 446.973 242.741L446.972 186.892C446.972 183.049 444.985 179.608 441.657 177.687C438.331 175.765 434.355 175.765 431.027 177.685L407.644 191.185C406.367 191.923 404.737 191.484 404 190.209C403.264 188.933 403.701 187.303 404.977 186.567L428.36 173.067C433.356 170.18 439.325 170.181 444.324 173.068C449.32 175.953 452.305 181.121 452.305 186.892L452.307 242.741C452.307 252.748 459.628 265.429 468.293 270.432L534.865 308.867C543.383 313.785 551.283 314.643 557.1 311.284C562.921 307.924 566.127 300.656 566.127 290.819V219.517C566.127 207.44 573.848 193.52 583.708 187.828L599.955 178.447C601.228 177.707 602.86 178.147 603.597 179.423C604.333 180.697 603.899 182.329 602.621 183.065L586.375 192.445C578.289 197.113 571.46 209.511 571.46 219.517V290.819C571.46 302.641 567.307 311.551 559.767 315.903C556.599 317.732 553.032 318.641 549.201 318.641Z" fill="#273E47"/>
<path d="M434.129 195.039V199.399C434.129 206.376 429.231 214.861 423.188 218.351L382.805 241.664L341.755 217.959L341.745 182.409L381.604 163.999C387.939 161.073 397.973 161.529 404.016 165.017L423.188 176.087C429.231 179.576 434.129 188.06 434.129 195.039Z" fill="#273E47"/>
<path d="M381.604 163.999C387.939 161.073 397.973 161.529 404.016 165.017L423.188 176.087C429.231 179.576 428.993 184.776 422.659 187.701L382.811 206.108L341.745 182.409L381.604 163.999Z" fill="#33535F"/>
<path d="M387.945 238.697L392.155 236.267L387.945 238.697ZM347.463 179.768L352.14 177.608L347.463 179.768Z" fill="#D2D4D1"/>
<path d="M387.945 238.697V209.459C387.945 207.823 387.408 206.023 386.525 204.392L390.939 202.353C391.7 203.877 392.155 205.523 392.155 207.028V236.267L387.945 238.697Z" fill="#1F3239"/>
<path d="M386.525 204.392C385.525 202.543 384.081 200.911 382.476 199.983L347.463 179.768L352.14 177.608L386.684 197.553C388.403 198.545 389.935 200.344 390.939 202.353L386.525 204.392Z" fill="#29444E"/>
<path d="M338.257 176.289C339.239 175.723 340.595 175.803 342.097 176.671L382.476 199.983C385.497 201.728 387.945 205.969 387.945 209.459V244.232C387.945 245.979 387.329 247.197 386.336 247.76C385.413 248.283 382.115 250.187 381.201 250.724C380.216 251.305 378.853 251.229 377.339 250.356L336.961 227.044C333.94 225.3 331.491 221.057 331.491 217.568V182.795C331.491 181.057 332.096 179.827 333.081 179.259C334.005 178.725 337.331 176.823 338.257 176.289Z" fill="#273E47"/>
<path d="M377.339 202.948L336.961 179.636C333.939 177.892 331.491 179.307 331.491 182.795V217.568C331.491 221.057 333.939 225.3 336.961 227.044L377.339 250.356C380.36 252.1 382.811 250.687 382.811 247.197V212.424C382.811 208.936 380.361 204.692 377.339 202.948Z" fill="#33535F"/>
<path d="M344.624 235.935C344.736 236.356 344.812 236.836 344.812 237.363C344.812 240.636 342.513 244.615 339.68 246.252C339.223 246.515 338.788 246.675 338.368 246.788C338.256 246.367 338.177 245.912 338.177 245.387C338.177 242.113 340.476 238.133 343.311 236.497C343.765 236.233 344.203 236.049 344.624 235.935ZM329.515 243.42L329.516 249.437C329.516 251.876 330.361 253.576 331.739 254.368C332.352 254.721 334.759 256.111 335.373 256.471C336.765 257.281 338.689 257.18 340.807 255.957L374.204 236.676L374.2 212.972L370.569 210.873L337.172 230.155C332.943 232.597 329.515 238.536 329.515 243.42Z" fill="#26B6A6"/>
<path d="M335.388 256.479L335.383 256.476L335.36 256.463C335.364 256.465 335.369 256.468 335.373 256.471C335.379 256.473 335.383 256.476 335.388 256.479ZM331.024 253.831C330.228 253.081 329.715 251.924 329.564 250.411C329.719 251.915 330.237 253.072 331.024 253.831ZM330.023 239.955C330.161 239.457 330.325 238.96 330.516 238.468C330.327 238.961 330.161 239.457 330.023 239.955Z" fill="#C3C5C2"/>
<path d="M335.411 256.489L335.388 256.479C335.383 256.476 335.379 256.473 335.373 256.471C335.369 256.468 335.364 256.465 335.36 256.463L335.251 256.396C334.449 255.929 332.304 254.689 331.744 254.356C331.484 254.212 331.244 254.037 331.024 253.831C330.237 253.072 329.719 251.915 329.564 250.411C329.533 250.1 329.517 249.776 329.517 249.436V243.423C329.517 242.301 329.695 241.128 330.023 239.955C330.161 239.457 330.327 238.961 330.516 238.468C330.517 238.464 330.519 238.459 330.521 238.453C330.863 237.568 331.283 236.697 331.769 235.863L335.397 237.956C334.011 240.383 333.156 243.063 333.156 245.516V251.529C333.156 253.436 333.677 254.889 334.556 255.823C334.736 256.025 334.953 256.187 335.176 256.335L335.411 256.489Z" fill="#14B099"/>
<path d="M335.397 237.956L331.769 235.863C333.156 233.463 335.064 231.383 337.171 230.156L370.571 210.876L374.184 212.969L340.811 232.249C338.691 233.476 336.783 235.556 335.397 237.956Z" fill="#70CEC3"/>
<path d="M335.556 256.583L335.464 256.529L335.523 256.553C335.527 256.555 335.529 256.556 335.532 256.557L335.556 256.583Z" fill="white"/>
<path d="M335.532 256.557C335.529 256.556 335.527 256.555 335.523 256.553L335.531 256.556L335.532 256.557Z" fill="#70CEC3"/>
<path d="M335.523 256.553L335.464 256.529L335.423 256.499C335.456 256.517 335.489 256.536 335.523 256.553Z" fill="#C3C5C2"/>
<path d="M335.531 256.556L335.523 256.553C335.489 256.536 335.456 256.517 335.423 256.499L335.411 256.489L335.531 256.556Z" fill="#14B099"/>
<path d="M338.368 246.788C338.367 246.785 338.365 246.781 338.365 246.779C338.491 246.748 338.617 246.715 338.743 246.675C338.616 246.717 338.492 246.755 338.368 246.788ZM339.495 246.353C339.555 246.32 339.613 246.287 339.673 246.249C342.503 244.607 344.804 240.64 344.804 237.355C344.804 236.824 344.725 236.339 344.624 235.935C344.736 236.356 344.812 236.836 344.812 237.363C344.812 240.636 342.513 244.615 339.68 246.252C339.617 246.287 339.556 246.321 339.495 246.353Z" fill="#C3C5C2"/>
<path d="M341.025 249.053C339.716 249.053 338.724 248.236 338.36 246.78C338.361 246.779 338.363 246.779 338.365 246.779C338.365 246.781 338.367 246.785 338.368 246.788C338.492 246.755 338.616 246.717 338.743 246.675C338.989 246.596 339.239 246.493 339.495 246.353C339.556 246.321 339.617 246.287 339.68 246.252C342.513 244.615 344.812 240.636 344.812 237.363C344.812 236.836 344.736 236.356 344.624 235.935C344.968 235.839 345.299 235.792 345.612 235.792C347.288 235.792 348.441 237.137 348.441 239.452C348.441 242.737 346.143 246.704 343.312 248.347C342.492 248.825 341.715 249.053 341.025 249.053Z" fill="#14B099"/>
<path d="M313.835 218.156C313.945 218.577 314.023 219.059 314.023 219.584C314.023 222.857 311.724 226.836 308.891 228.472C308.433 228.736 308 228.896 307.577 229.009C307.467 228.589 307.389 228.133 307.389 227.608C307.389 224.335 309.685 220.356 312.521 218.719C312.977 218.455 313.413 218.271 313.835 218.156ZM298.725 225.643L298.727 231.659C298.728 234.097 299.572 235.797 300.949 236.589C301.563 236.943 303.968 238.332 304.585 238.692C305.976 239.503 307.9 239.401 310.017 238.179L343.415 218.897L343.411 195.193L339.779 193.095L306.384 212.376C302.153 214.819 298.725 220.757 298.725 225.643Z" fill="#26B6A6"/>
<path d="M304.744 238.783L304.677 238.756L304.584 238.703C304.317 238.544 303.732 238.201 303.1 237.832C303.656 238.153 304.175 238.453 304.472 238.627C304.56 238.683 304.651 238.735 304.744 238.783ZM300.047 235.857C299.529 235.289 299.151 234.532 298.935 233.6C299.152 234.529 299.533 235.288 300.047 235.857ZM300.683 218.607C300.776 218.433 300.872 218.26 300.971 218.089C300.872 218.26 300.776 218.433 300.683 218.607Z" fill="#C3C5C2"/>
<path d="M304.472 238.627C304.175 238.453 303.656 238.153 303.1 237.832C302.244 237.331 301.303 236.783 300.956 236.583C300.619 236.393 300.315 236.151 300.047 235.857C299.533 235.288 299.152 234.529 298.935 233.6C298.8 233.016 298.731 232.365 298.731 231.649V225.636C298.731 224.409 298.944 223.129 299.331 221.849C299.663 220.752 300.121 219.653 300.683 218.607C300.776 218.433 300.872 218.26 300.971 218.089L300.983 218.103L304.611 220.183L304.596 220.196C304.251 220.796 303.944 221.409 303.676 222.036C302.851 223.929 302.371 225.903 302.371 227.743V233.756C302.371 235.649 302.891 237.116 303.769 238.049C303.979 238.268 304.216 238.464 304.472 238.627Z" fill="#14B099"/>
<path d="M305.005 213.316C305.452 212.961 305.913 212.644 306.384 212.369L331.491 197.876V197.88L306.384 212.376C305.913 212.648 305.452 212.963 305.005 213.316Z" fill="white"/>
<path d="M331.491 197.88V197.876L339.783 193.089L341.32 193.985L339.779 193.095L331.491 197.88Z" fill="#91A7AA"/>
<path d="M304.611 220.183L300.983 218.103C302.06 216.229 303.451 214.548 305.005 213.316C305.452 212.963 305.913 212.648 306.384 212.376L331.491 197.88L339.779 193.095L341.32 193.985L343.397 195.196L310.024 214.476C307.891 215.703 305.997 217.783 304.611 220.183Z" fill="#70CEC3"/>
<path d="M304.769 238.809L304.677 238.756L304.744 238.783L304.769 238.809Z" fill="white"/>
<path d="M307.577 229.009C307.577 229.007 307.576 229.003 307.575 229C307.704 228.969 307.833 228.935 307.963 228.892C307.833 228.937 307.705 228.976 307.577 229.009ZM308.715 228.569C308.771 228.539 308.828 228.505 308.884 228.471C311.713 226.828 314.013 222.861 314.013 219.576C314.013 219.045 313.936 218.56 313.835 218.156C313.945 218.577 314.023 219.059 314.023 219.584C314.023 222.857 311.724 226.836 308.891 228.472C308.832 228.507 308.773 228.539 308.715 228.569Z" fill="#C3C5C2"/>
<path d="M310.236 231.275C308.927 231.275 307.935 230.457 307.571 229C307.572 229 307.573 229 307.575 229C307.576 229.003 307.577 229.007 307.577 229.009C307.705 228.976 307.833 228.937 307.963 228.892C308.209 228.813 308.459 228.711 308.715 228.569C308.773 228.539 308.832 228.507 308.891 228.472C311.724 226.836 314.023 222.857 314.023 219.584C314.023 219.059 313.945 218.577 313.835 218.156C314.18 218.06 314.511 218.013 314.823 218.013C316.499 218.013 317.653 219.359 317.653 221.673C317.653 224.959 315.353 228.925 312.523 230.568C311.703 231.047 310.925 231.275 310.236 231.275Z" fill="#14B099"/>
<path d="M310.759 200.885L305.388 179.977C305.113 178.907 304.024 178.263 302.953 178.537C301.884 178.812 301.24 179.903 301.515 180.972L306.885 201.881C307.16 202.951 308.249 203.596 309.32 203.32C310.389 203.045 311.033 201.956 310.759 200.885Z" fill="#4A5568"/>
<path d="M295.067 208.537L275.203 192.845C274.336 192.16 273.077 192.308 272.393 193.175C271.708 194.041 271.856 195.299 272.723 195.984L292.587 211.676C293.453 212.36 294.711 212.212 295.396 211.345C296.08 210.479 295.933 209.221 295.067 208.537Z" fill="#4A5568"/>
<path d="M289.523 225.46L266.311 227.26C265.209 227.345 264.385 228.307 264.471 229.408C264.556 230.509 265.519 231.333 266.62 231.248L289.832 229.448C290.932 229.363 291.756 228.4 291.671 227.299C291.585 226.197 290.623 225.375 289.523 225.46Z" fill="#4A5568"/>
<path d="M584.623 195.129C584.1 191.121 583.664 185.431 582.436 180.457C579.336 167.891 572.581 151.628 570.357 147.369C568.132 143.112 563.103 136.916 559.54 131.679C554.501 124.275 550.961 120.124 547.128 115.103C538.707 104.072 535.12 103.444 525.289 103.096C523.961 106.601 520.917 120.975 530.763 132.591L551.889 154.857C553.088 156.791 565.993 178.851 568.143 187.001C568.523 188.445 568.317 189.979 567.641 191.311C565.827 194.884 564.752 199.368 563.943 202.983C563.311 205.812 561.637 208.051 562.207 208.485C562.939 209.045 564.749 209.736 566.884 208.112C567.912 207.331 569.479 204.743 570.528 202.628C572.301 202.635 573.443 203.664 573.577 205.539C573.696 207.18 572.951 209.468 572.388 212.311C572.279 212.86 572.144 213.5 571.883 215.048C571.708 215.889 571.539 217.012 571.519 218.225C574.208 218.724 576.963 217.088 581.444 212.841C585.493 209.004 585.761 203.848 584.623 195.129Z" fill="#F6879F"/>
<path d="M514.759 95.6254C514.828 92.996 523.504 86.712 527.889 80.0747C531.953 73.9254 537.636 56.988 524.173 51.5734C524.173 51.5734 527.069 43.4467 521.799 38.6653C516.528 33.8853 509.409 36.832 508.288 38.84C508.288 38.84 506.325 30.4281 497.013 29.9801C487.701 29.5307 485.972 38.2174 485.972 38.2174C485.972 38.2174 478.616 34.8454 473.681 41.656C468.747 48.4667 475.3 54.7107 475.3 54.7107C475.3 54.7107 472.339 56.5787 472.792 59.9134C473.184 62.7974 475.939 63.508 476.265 64.9414C476.593 66.3747 474.779 67.2187 473.845 66.196C473.845 66.196 474.149 68.668 477.26 68.5C480.372 68.3307 483.137 64.108 483.137 64.108L514.759 95.6254Z" fill="#17282F"/>
<path d="M486.484 50.7214C482.501 52.4481 478.715 58.5401 478.772 75.5828C478.82 90.0281 483.249 93.6814 485.487 94.7534C487.725 95.8254 492.092 95.2841 496.337 94.6308L496.321 102.935C496.321 102.935 488.641 112.475 495.528 117.22C513.284 114.113 514.653 102.463 514.653 102.463L514.968 84.3561C514.968 84.3561 517.411 86.9228 521.707 83.1601C525.255 80.0534 526.531 74.7254 523.867 71.8014C521.204 68.8774 517.78 68.6401 514.692 71.9094C514.692 71.9094 509.024 72.2721 500.508 66.9254C491.789 61.4494 488.817 56.1628 486.484 50.7214Z" fill="#F6879F"/>
<path d="M496.721 84.6281C496.764 85.8081 495.877 86.7961 494.741 86.8347C493.605 86.8721 492.651 85.9467 492.607 84.7667C492.564 83.5854 493.451 82.5974 494.587 82.5601C495.721 82.5227 496.679 83.4467 496.721 84.6281Z" fill="#C35363"/>
<path d="M485.736 70.6747C485.776 71.7747 484.951 72.6961 483.892 72.7307C482.833 72.7667 481.943 71.904 481.904 70.8026C481.864 69.704 482.689 68.784 483.748 68.748C484.807 68.7134 485.696 69.576 485.736 70.6747Z" fill="#17282F"/>
<path d="M500.505 71.5321C500.549 72.7121 499.663 73.7 498.527 73.7387C497.391 73.7774 496.435 72.8507 496.392 71.6707C496.349 70.4894 497.236 69.5014 498.372 69.4641C499.507 69.4254 500.464 70.3521 500.505 71.5321Z" fill="#17282F"/>
<path d="M484.407 63.0161L480.341 65.3934C480.928 66.5921 482.419 66.9201 483.541 66.2627C484.663 65.6054 484.992 64.2121 484.407 63.0161Z" fill="#17282F"/>
<path d="M514.661 69.5534L514.613 77.5787C512.467 77.6507 510.737 75.9121 510.752 73.6961C510.765 71.4814 512.517 69.6267 514.661 69.5534Z" fill="#17282F"/>
<path d="M490.997 68.7481L490.176 80.2614L484.105 78.8387L490.997 68.7481Z" fill="#F47089"/>
<path d="M496.337 94.6308C500.811 94.1081 510.039 91.5401 511.54 87.7907C511.54 87.7907 511.019 90.1547 508.232 92.5481C505.443 94.9414 496.332 97.4254 496.332 97.4254L496.337 94.6308Z" fill="#F47089"/>
<path d="M540.54 37.4227C540.939 37.5721 541.231 37.8494 541.411 38.2507C541.595 38.6507 541.608 39.0508 541.457 39.4521L539.647 44.2614C539.495 44.6627 539.219 44.9547 538.817 45.1347C538.417 45.3174 538.017 45.3321 537.616 45.1814L532.917 43.4134C532.516 43.2601 532.224 42.9854 532.043 42.5841C531.86 42.1827 531.844 41.7827 531.996 41.3814L533.808 36.5721C533.959 36.1707 534.233 35.8801 534.636 35.6974C535.037 35.5174 535.436 35.5014 535.839 35.6521L540.54 37.4227ZM550.04 5.55873C551.753 6.20273 553.331 7.06809 554.773 8.15209C556.215 9.23609 557.392 10.4801 558.299 11.8814C559.207 13.2841 559.785 14.812 560.036 16.468C560.285 18.1214 560.075 19.8414 559.403 21.6267C558.855 23.084 558.149 24.264 557.289 25.168C556.429 26.0707 555.483 26.8161 554.451 27.4054C553.419 27.9934 552.347 28.4854 551.243 28.8801C550.137 29.2747 549.089 29.6507 548.104 30.0054C547.116 30.3627 546.209 30.7814 545.385 31.26C544.559 31.74 543.941 32.3601 543.531 33.1201C543.307 33.4934 543.012 33.7774 542.649 33.9721C542.283 34.1694 541.9 34.1907 541.5 34.04L537.347 32.4747C536.945 32.3254 536.645 32.0467 536.445 31.6374C536.247 31.2294 536.239 30.8334 536.428 30.4454C537.035 29.052 537.804 27.9174 538.737 27.0414C539.671 26.1654 540.671 25.44 541.741 24.8654C542.811 24.2894 543.904 23.8187 545.02 23.4481C546.137 23.0787 547.179 22.7121 548.149 22.3481C549.116 21.9854 549.959 21.5734 550.671 21.1147C551.385 20.6574 551.887 20.0441 552.175 19.2774C552.696 17.8947 552.541 16.536 551.712 15.204C550.881 13.8734 549.501 12.8441 547.571 12.1161C544.475 10.9494 541.613 11.6414 538.991 14.1894C538.657 14.5227 538.353 14.7507 538.08 14.8747C537.803 15.0014 537.428 14.9734 536.953 14.7947L532.528 13.1281C532.201 13.0041 531.957 12.7881 531.804 12.4814C531.651 12.1734 531.641 11.8374 531.777 11.4721C532.293 10.2121 533.177 9.05608 534.425 8.00808C535.671 6.96007 537.127 6.13607 538.788 5.5334C540.449 4.9334 542.259 4.60272 544.212 4.55072C546.168 4.49605 548.109 4.83206 550.04 5.55873Z" fill="#26B6A6"/>
<path d="M572.293 38.8494C573.541 40.0361 574.595 41.3667 575.448 42.836C576.303 44.308 576.869 45.8187 577.14 47.368C577.412 48.92 577.353 50.4574 576.964 51.9854C576.575 53.5147 575.76 54.9307 574.521 56.2334C573.509 57.2974 572.465 58.0627 571.388 58.5307C570.309 59 569.213 59.3 568.101 59.432C566.987 59.564 565.879 59.5974 564.775 59.536C563.669 59.472 562.623 59.4147 561.636 59.36C560.649 59.308 559.707 59.3387 558.816 59.452C557.924 59.5654 557.159 59.8774 556.524 60.3867C556.192 60.628 555.832 60.7667 555.444 60.8027C555.055 60.8387 554.715 60.7173 554.424 60.4387L551.391 57.556C551.099 57.2774 550.94 56.9254 550.917 56.4987C550.892 56.0707 551.032 55.724 551.337 55.456C552.377 54.4694 553.463 53.7667 554.595 53.3494C555.725 52.932 556.861 52.6694 558 52.5614C559.139 52.4547 560.26 52.4467 561.368 52.536C562.472 52.624 563.512 52.688 564.487 52.7294C565.46 52.7694 566.34 52.7214 567.131 52.584C567.917 52.4467 568.579 52.1 569.108 51.5413C570.069 50.532 570.432 49.2974 570.203 47.8347C569.971 46.376 569.149 44.9747 567.743 43.6347C565.481 41.4867 562.743 41.036 559.532 42.284C559.119 42.4507 558.771 42.5387 558.487 42.5454C558.201 42.552 557.887 42.392 557.54 42.064L554.311 38.9907C554.071 38.764 553.94 38.488 553.92 38.1653C553.899 37.84 554.015 37.5467 554.265 37.2801C555.177 36.3734 556.367 35.6947 557.835 35.2427C559.304 34.7907 560.869 34.608 562.533 34.696C564.195 34.784 565.885 35.1627 567.601 35.8334C569.32 36.5027 570.881 37.5094 572.293 38.8494ZM552.347 63.0214C552.639 63.3 552.791 63.6467 552.801 64.0614C552.812 64.4774 552.677 64.8294 552.4 65.1227L549.063 68.632C548.784 68.9254 548.437 69.0774 548.023 69.0867C547.607 69.0974 547.255 68.9627 546.961 68.6854L543.532 65.4254C543.239 65.1454 543.088 64.8014 543.077 64.3854C543.065 63.9694 543.2 63.6174 543.48 63.324L546.816 59.8134C547.093 59.5214 547.439 59.3694 547.856 59.3587C548.269 59.3494 548.623 59.4814 548.917 59.76L552.347 63.0214Z" fill="#26B6A6"/>
<path d="M547.975 69.0867C547.58 69.0867 547.243 68.9534 546.961 68.6854L543.532 65.4254C543.239 65.1454 543.088 64.8014 543.077 64.3854C543.076 64.3694 543.076 64.3534 543.076 64.3374C543.076 63.9414 543.211 63.6054 543.48 63.3241L546.816 59.8134C547.093 59.5214 547.439 59.3694 547.856 59.3587C547.869 59.3587 547.884 59.3587 547.897 59.3587C548.293 59.3587 548.632 59.4921 548.917 59.7601L552.347 63.0214C552.639 63.3001 552.791 63.6467 552.801 64.0614C552.801 64.0774 552.801 64.0934 552.801 64.1094C552.801 64.5041 552.667 64.8414 552.4 65.1227L549.063 68.6321C548.784 68.9254 548.437 69.0774 548.023 69.0867C548.007 69.0867 547.991 69.0867 547.975 69.0867Z" fill="#87D6CB"/>
<path d="M555.312 60.808C554.977 60.808 554.681 60.684 554.424 60.4387L551.391 57.5561C551.099 57.2774 550.94 56.9254 550.917 56.4987C550.915 56.4654 550.915 56.4321 550.915 56.3987C550.915 56.0161 551.056 55.7027 551.337 55.4561C552.377 54.4694 553.463 53.7667 554.595 53.3494C555.725 52.9321 556.861 52.6694 558 52.5614C558.62 52.5041 559.236 52.4747 559.847 52.4747C560.356 52.4747 560.864 52.4947 561.368 52.5361C562.472 52.6241 563.512 52.6881 564.487 52.7294C564.709 52.7387 564.925 52.7427 565.137 52.7427C565.856 52.7427 566.52 52.6907 567.131 52.5841C567.917 52.4467 568.579 52.1 569.108 51.5414C569.881 50.728 570.268 49.7707 570.269 48.6654C570.269 48.3974 570.247 48.1214 570.203 47.8347C569.971 46.3761 569.149 44.9747 567.743 43.6347C566.312 42.2761 564.691 41.5961 562.88 41.5961C561.828 41.5961 560.712 41.8254 559.532 42.2841C559.119 42.4507 558.771 42.5387 558.487 42.5454C558.481 42.5454 558.476 42.5467 558.471 42.5467C558.188 42.5467 557.88 42.3854 557.54 42.0641L554.311 38.9907C554.071 38.764 553.94 38.488 553.92 38.1654C553.917 38.1387 553.917 38.1147 553.917 38.0894C553.917 37.7934 554.035 37.5254 554.265 37.2801C555.177 36.3734 556.367 35.6947 557.835 35.2427C559.064 34.864 560.361 34.6747 561.727 34.6747C561.992 34.6747 562.261 34.6814 562.533 34.696C564.195 34.784 565.885 35.1627 567.601 35.8334C569.32 36.5027 570.881 37.5094 572.293 38.8494C573.541 40.0361 574.595 41.3667 575.448 42.8361C576.303 44.3081 576.869 45.8187 577.14 47.3681C577.252 48.0107 577.308 48.6507 577.308 49.2894C577.307 50.1921 577.192 51.0907 576.964 51.9854C576.575 53.5147 575.76 54.9307 574.521 56.2334C573.509 57.2974 572.465 58.0627 571.388 58.5307C570.309 59.0001 569.213 59.3001 568.101 59.4321C567.344 59.5214 566.589 59.5654 565.837 59.5654C565.483 59.5654 565.129 59.5561 564.775 59.5361C563.669 59.4721 562.623 59.4147 561.636 59.3601C561.324 59.3441 561.016 59.3361 560.713 59.3361C560.059 59.3361 559.425 59.3747 558.816 59.4521C557.924 59.5654 557.159 59.8774 556.524 60.3867C556.192 60.6281 555.832 60.7667 555.444 60.8027C555.399 60.8067 555.355 60.808 555.312 60.808Z" fill="#87D6CB"/>
<path d="M77.9197 398.264C82.1473 400.835 87.7599 400.947 93.0536 399.079L97.1172 371.124L78.3817 366.34L77.9197 398.264Z" fill="#F6879F"/>
<path d="M108.04 425.065C108.496 425.541 108.215 429.045 107.642 429.847C107.028 430.705 103.855 433.3 97.9474 433.405C92.3031 433.505 87.3219 432.476 84.1339 430.203C80.9448 427.929 79.4708 425.531 79.3323 422.311C79.1943 419.091 79.7172 416.02 78.323 413.471C77.035 411.119 75.2708 408.8 74.8479 407.539C73.9282 404.797 74.8162 400.645 74.8162 400.645L108.04 425.065Z" fill="#17282F"/>
<path d="M94.3474 397.899C94.3787 399.093 94.5156 400.284 94.8427 401.499C95.5246 404.025 96.6375 406.431 97.9079 408.729C98.562 409.913 99.2584 411.079 100.075 412.163C101.667 414.279 103.69 416.055 105.386 418.092C107.082 420.131 108.486 422.567 108.486 425.183C108.489 429.605 103.621 430.847 99.9006 431.304C95.9282 431.793 91.7386 431.357 87.9563 430.059C83.7479 428.615 80.8422 425.137 80.3626 420.836C80.2251 419.601 80.3678 418.352 80.2886 417.113C80.1099 414.284 78.7927 411.637 77.274 409.212C76.3932 407.804 75.4266 406.424 74.8688 404.871C73.8646 402.079 74.9522 399.056 75.8339 396.377C76.5954 394.061 77.2022 391.272 78.0172 391.537C77.9954 392.012 77.9954 393.048 77.9954 393.048C78.2386 393.573 78.8282 393.949 78.9667 394.555C79.1115 395.185 79.2828 395.811 79.538 396.407C79.9292 397.316 80.5323 398.161 81.3792 398.672C81.524 397.011 81.6683 395.348 81.8136 393.687C81.8579 393.172 81.9208 392.615 82.2766 392.24C82.6364 391.86 83.1995 391.772 83.7183 391.703C86.8646 391.292 90.0698 390.881 93.1959 391.431C93.664 391.512 94.1787 391.649 94.4323 392.052C94.6402 392.383 94.6151 392.803 94.5818 393.191C94.4464 394.793 94.3068 396.347 94.3474 397.899Z" fill="#26B6A6"/>
<path d="M96.6896 431.5C93.7235 431.5 90.7307 431.011 87.9563 430.059C83.7479 428.615 80.8421 425.137 80.3625 420.836C80.312 420.383 80.2989 419.927 80.2995 419.471C80.2995 418.996 80.314 418.52 80.314 418.044C80.314 417.733 80.3084 417.423 80.2885 417.113C80.1099 414.284 78.7927 411.637 77.274 409.212C76.3932 407.804 75.4265 406.424 74.8688 404.871C74.5823 404.075 74.4661 403.259 74.4667 402.439C74.4683 400.383 75.2036 398.292 75.8339 396.377C76.5615 394.165 77.1473 391.52 77.9088 391.52C77.9448 391.52 77.9807 391.525 78.0172 391.537C78.0172 391.54 78.0172 391.541 78.0172 391.543C77.9953 392.019 77.9953 393.048 77.9953 393.048C78.2385 393.573 78.8281 393.949 78.9667 394.555C79.1115 395.185 79.2828 395.811 79.538 396.407C79.9292 397.316 80.5323 398.161 81.3792 398.672C81.524 397.011 81.6683 395.348 81.8136 393.687C81.8579 393.172 81.9208 392.615 82.2765 392.24C82.6364 391.86 83.1995 391.772 83.7183 391.703C85.7765 391.433 87.8599 391.165 89.9297 391.165C91.024 391.165 92.1145 391.24 93.1959 391.431C93.664 391.512 94.1787 391.649 94.4323 392.052C94.5672 392.267 94.6036 392.517 94.6041 392.775C94.6041 392.913 94.5932 393.055 94.5817 393.191C94.462 394.605 94.3396 395.983 94.3401 397.353C94.3401 397.535 94.3427 397.717 94.3473 397.899C94.3787 399.093 94.5156 400.284 94.8427 401.499C95.5245 404.025 96.6375 406.431 97.9079 408.729C98.562 409.913 99.2584 411.079 100.075 412.163C101.667 414.279 103.69 416.055 105.385 418.092C107.082 420.131 108.485 422.567 108.486 425.183C108.489 429.605 103.621 430.847 99.9005 431.304C98.8421 431.435 97.7672 431.5 96.6896 431.5Z" fill="#14B099"/>
<path d="M98.4522 409.687C96.876 408.368 93.197 408.153 91.1735 408.26C88.6391 408.395 86.5506 409.168 85.3459 409.96C84.812 410.311 84.0974 410.207 83.6688 409.736C83.1536 409.171 83.2516 408.291 83.8943 407.869C85.1703 407.032 87.462 405.88 90.4588 405.831C95.4292 405.748 96.8364 406.675 96.8364 406.675C96.8364 406.675 99.0167 408.251 98.4522 409.687Z" fill="#33535F"/>
<path d="M101.986 414.408C99.9861 413.077 95.9303 413.035 93.9058 413.141C91.3714 413.277 89.4339 414.167 88.2298 414.959C87.6959 415.309 86.9807 415.205 86.5527 414.735C86.0375 414.168 86.135 413.288 86.7777 412.867C88.0542 412.029 90.4938 410.696 93.4913 410.647C98.4621 410.564 99.6974 411.645 99.6974 411.645C99.6974 411.645 101.743 412.567 101.986 414.408Z" fill="#33535F"/>
<path d="M88.7418 400.985C92.1823 400.816 93.6131 401.277 94.9386 401.843C95.785 402.379 96.2855 403.788 95.7052 404.107C94.636 403.435 92.6651 403.075 90.2276 403.052C88.5921 403.036 86.5011 403.587 84.7938 404.235C84.3594 404.4 83.8448 404.637 83.3922 404.856C82.7828 405.152 82.0422 404.879 81.7907 404.263C81.5771 403.739 81.7886 403.14 82.2959 402.871C83.5318 402.211 85.962 401.121 88.7418 400.985Z" fill="#33535F"/>
<path d="M130.527 387.748C133.776 395.897 138.875 393.384 146.629 388.695L147.804 360.883L128.058 359.055L130.527 387.748Z" fill="#F6879F"/>
<path d="M176.425 407.353C176.836 408.344 176.604 410.148 175.995 411.268C175.384 412.387 169.203 415.447 161.14 414.467C153.076 413.484 147.695 409.925 144.719 407.716C141.743 405.508 138.552 404.953 134.556 404.508C130.561 404.063 127.551 402.671 126.773 400.749C125.995 398.828 127.18 395.655 127.18 395.655L176.425 407.353Z" fill="#17282F"/>
<path d="M145.011 381.716C145.753 381.584 146.371 381.352 147.161 381.111C147.555 380.989 147.988 380.871 148.365 381.036C148.872 381.259 149.041 381.88 149.151 382.423C149.373 383.532 149.412 384.957 149.844 385.985C150.236 386.92 151.265 387.813 151.987 388.493C153.861 390.259 156.047 391.681 158.239 393.016C160.807 394.58 163.337 395.821 166 397.196C168.717 398.597 172.372 399.561 174.471 401.148C177.532 403.459 177.652 408.859 173.921 410.788C170.701 412.452 162.381 413.996 153.899 411.092C149.279 409.511 144.34 404.217 138.208 403.404C134.307 402.885 129.105 402.276 126.744 399.167C125.883 397.799 126.631 393.975 127.329 389.447C127.954 385.395 128.528 379.055 129.815 379.472L129.921 380.7C129.921 380.7 131.093 382.117 131.475 382.584C131.81 382.993 132.2 383.255 132.569 383.619C133.044 384.085 133.425 384.617 133.949 385.039C134.596 385.557 135.377 385.945 136.207 385.979C136.599 385.996 137.003 385.929 137.344 385.733C138.008 385.353 138.096 384.479 138.635 383.936C139.247 383.317 140.005 382.841 140.812 382.521C141.94 382.075 143.147 381.899 144.349 381.801C144.584 381.781 144.803 381.752 145.011 381.716Z" fill="#26B6A6"/>
<path d="M163.843 412.719C160.777 412.719 157.352 412.275 153.899 411.092C149.279 409.511 144.34 404.217 138.208 403.404C134.307 402.885 129.105 402.276 126.744 399.167C126.468 398.729 126.357 398.039 126.357 397.153C126.357 395.277 126.854 392.525 127.329 389.447C127.934 385.523 128.492 379.452 129.695 379.452C129.734 379.452 129.774 379.459 129.815 379.472L129.921 380.7C129.921 380.7 131.093 382.117 131.475 382.584C131.81 382.993 132.199 383.255 132.569 383.619C133.044 384.085 133.425 384.617 133.949 385.039C134.596 385.557 135.377 385.945 136.207 385.979C136.244 385.981 136.283 385.981 136.32 385.981C136.676 385.981 137.036 385.911 137.344 385.733C138.008 385.353 138.096 384.479 138.635 383.936C139.247 383.317 140.005 382.841 140.812 382.521C141.94 382.075 143.147 381.899 144.349 381.801C144.584 381.781 144.803 381.752 145.011 381.716C145.753 381.584 146.371 381.352 147.161 381.111C147.416 381.032 147.687 380.955 147.949 380.955C148.092 380.955 148.232 380.977 148.365 381.036C148.872 381.259 149.041 381.88 149.151 382.423C149.373 383.532 149.412 384.957 149.844 385.985C150.236 386.92 151.265 387.813 151.987 388.493C153.861 390.259 156.047 391.681 158.239 393.016C160.807 394.58 163.337 395.821 166 397.196C168.717 398.597 172.372 399.561 174.471 401.148C175.953 402.267 176.747 404.112 176.745 405.935C176.745 407.876 175.845 409.793 173.921 410.788C172.012 411.775 168.308 412.719 163.843 412.719Z" fill="#14B099"/>
<path d="M154.696 390.689C154.696 390.689 154.213 389.157 151.907 388.599C150.143 388.171 146.925 389.315 144.881 390.821C144.045 391.439 144.081 392.696 144.963 393.247C145.488 393.575 146.153 393.532 146.643 393.151C147.984 392.104 150.969 390.231 154.696 390.689Z" fill="#33535F"/>
<path d="M160.052 394.08C160.052 394.08 158.997 392.219 156.72 392.131C156.72 392.131 152.059 392.013 149.035 394.544C148.263 395.189 148.252 396.357 149.105 396.888C149.613 397.203 150.256 397.161 150.724 396.788C152.083 395.699 154.816 393.404 160.052 394.08Z" fill="#33535F"/>
<path d="M166 397.196C166 397.196 164.805 395.499 162.527 395.411C162.527 395.411 158.183 395.339 155.159 397.868C154.387 398.513 154.375 399.683 155.229 400.213C155.737 400.528 156.38 400.487 156.845 400.113C158.207 399.024 160.763 396.52 166 397.196Z" fill="#33535F"/>
<path d="M77.3891 323.197C77.9902 309.777 80.847 302.78 81.2522 299.059C81.2522 299.059 82.3479 225.203 84.1422 202.784L150.277 199.973C151.253 223.913 152.133 288.457 151.621 296.985C151.129 305.155 147.804 376.053 147.804 376.053C138.452 378.965 128.515 374.767 128.515 374.767C128.515 374.767 122.966 334.441 122.056 325.548C120.877 314.036 122.68 301.536 122.68 301.536L118.454 244.111C118.454 244.111 113.344 288.633 110.819 305.403C107.926 324.616 95.535 384.169 95.535 384.169C86.6131 386.403 77.9198 382.545 77.9198 382.545C77.9198 382.545 76.5172 342.659 77.3891 323.197Z" fill="#33535F"/>
<path d="M118.452 244.112L119.703 236.201C123.556 235.629 133.311 229.535 139.091 224.211C139.091 224.211 133.868 233.063 122.876 239.155L122.68 301.536L118.452 244.112Z" fill="#273E47"/>
<path d="M145.568 161.065C141.068 150.809 133.343 133.541 133.343 133.541L131.376 105.477C131.376 105.477 135.757 105.592 139.924 106.241C144.092 106.892 150.683 110.868 153.707 118.356C155.952 123.917 167.66 157.843 167.66 157.843L188.064 147.089C193.287 143.765 195.137 138.268 198.473 135.144C201.811 132.02 205.183 131.489 208.829 128.945C212.476 126.4 213.988 124.359 214.916 126.899C215.844 129.439 211.715 133.355 210.968 134.331C210.223 135.307 206.151 137.388 211.281 137.655C216.411 137.921 226.759 132.935 229.236 132.081C231.713 131.227 231.496 134.168 230.209 135.992C228.923 137.816 228.781 143.181 226.619 146.191C224.325 149.384 223.088 150.759 218.172 152.659C213.593 154.429 204.121 154.876 199.235 157.696C194.348 160.516 182.536 171.191 174.663 176.667C164.089 184.023 158.137 184.503 153.997 178.639C149.857 172.775 147.152 164.676 145.568 161.065Z" fill="#F6879F"/>
<path d="M128.624 104.947C135.548 104.415 143.723 104.84 148.253 108.975C151.859 112.267 153.217 114.369 157.245 125.687C159.967 133.327 165.616 150.925 165.616 150.925C165.616 150.925 153.616 153.063 145.549 163.191L132.554 133.977L128.624 104.947Z" fill="#2D3748"/>
<path d="M167.66 157.843C163.143 159.461 160.123 162.632 159.039 164.46C159.039 164.46 159.525 159.096 167.004 155.945L167.66 157.843Z" fill="#F47089"/>
<path d="M112.025 103.697C112.025 103.697 107.57 103.359 102.28 104.757C96.186 106.368 85.2646 109.435 85.2646 109.435C81.7984 111.24 80.4438 117.243 79.6599 120.693C77.1506 131.739 83.7172 156.741 84.6672 166.416C85.6178 176.088 83.5407 205.911 83.5407 205.911C90.997 214.543 131.377 220.275 151.044 205.912C151.044 205.912 151.901 137.553 149.963 127.737C147.031 112.896 142.68 105.839 127.332 104.947L112.025 103.697Z" fill="#4A5568"/>
<path d="M120.653 67.0174L116.266 69.4387C115.619 68.1787 116.077 66.6147 117.288 65.9467C118.501 65.2774 120.007 65.7574 120.653 67.0174Z" fill="#17282F"/>
<path d="M139.723 68.7841L135.721 65.7027C136.537 64.5561 138.095 64.3174 139.2 65.1681C140.304 66.0201 140.539 67.6387 139.723 68.7841Z" fill="#17282F"/>
<path d="M100.488 53.0588C100.488 53.0588 95.7703 53.7147 94.0407 57.2707C92.536 60.3627 93.0812 67.8294 95.0855 75.9654C97.0907 84.1014 98.9803 89.0027 100.159 91.2534C101.338 93.5054 103.76 94.1387 103.76 94.1387L103.525 84.4841L103.176 77.7574C103.176 77.7574 107.494 71.8601 107.969 67.0281C108.579 60.8081 107.27 58.2628 107.27 58.2628L100.488 53.0588Z" fill="#17282F"/>
<path d="M108.106 62.4001C108.137 72.3561 116.235 80.4014 126.192 80.3681C136.148 80.3361 143.611 72.168 143.579 62.2134C143.547 52.256 136.031 44.2814 126.075 44.3134C116.118 44.3467 108.073 52.4441 108.106 62.4001Z" fill="#17282F"/>
<path d="M103.43 76.6841C101.808 78.0907 100.487 74.4494 99.1219 73.0294C97.7568 71.6107 93.3084 69.6787 91.1079 74.3561C88.8651 79.1214 93.0484 85.8228 96.4703 87.1361C100.179 88.5614 102.28 85.3574 102.28 85.3574V106.751C107.41 115.993 116.466 115.709 121.299 115.189C126.133 114.668 127.196 109.639 123.663 105.584L123.624 98.9681C123.624 98.9681 129.087 99.7787 131.749 99.3587C136.179 98.6587 138.495 95.3174 139.824 90.5147C141.959 82.8027 142.816 69.8401 139.851 54.8654C134.888 51.0267 117.682 51.6627 107.27 58.2627C108.032 71.5441 105.053 75.2774 103.43 76.6841Z" fill="#F6879F"/>
<path d="M140.672 47.308C141.34 44.532 141.641 41.6694 141.568 38.8161C141.539 37.6868 141.292 36.3294 140.243 35.9107C139.224 35.5054 138.152 36.2534 137.244 36.868C133.409 39.4574 128.629 40.1867 124.009 40.44C116.033 40.8787 103.775 40.3574 99.7093 49.1147C98.5817 51.5427 98.3875 54.1014 100.617 55.78C102.519 57.2134 104.956 57.8601 107.27 58.2627C111.311 58.9667 115.319 59.8561 119.387 60.3961C123.532 60.9454 128.364 61.4841 132.437 60.2281C135.857 59.1721 139.336 58.2654 141.891 55.5414C144.084 53.204 145.357 50.0267 145.387 46.8227C145.391 46.3667 145.283 45.7934 144.84 45.6841C144.617 45.6294 144.387 45.72 144.176 45.8107C143.008 46.3107 141.84 46.808 140.672 47.308Z" fill="#17282F"/>
<path d="M123.624 98.9681C123.624 98.9681 113.723 97.0067 110.259 95.1787C107.94 93.9561 106.026 91.8294 105.462 90.4641C105.462 90.4641 106.119 93.3974 108.196 96.0348C110.736 99.2601 123.632 101.6 123.632 101.6L123.624 98.9681Z" fill="#F47089"/>
<path d="M121.633 73.5774C121.637 74.852 120.646 75.8854 119.42 75.8867C118.193 75.8867 117.196 74.8547 117.191 73.58C117.187 72.3054 118.178 71.272 119.405 71.2707C120.631 71.2707 121.629 72.3027 121.633 73.5774Z" fill="#17282F"/>
<path d="M124.83 88.9734C124.834 90.172 123.902 91.144 122.748 91.144C121.595 91.144 120.657 90.1734 120.653 88.9747C120.649 87.7774 121.581 86.8054 122.735 86.8054C123.887 86.8054 124.826 87.7747 124.83 88.9734Z" fill="#C35363"/>
<path d="M118.833 66.5707L114.242 69.4628C113.463 68.1414 113.86 66.4214 115.128 65.6228C116.396 64.8241 118.055 65.2481 118.833 66.5707Z" fill="#17282F"/>
<path d="M135.024 63.7441L139.849 65.8988C139.299 67.2641 137.773 67.8894 136.441 67.2934C135.109 66.6988 134.475 65.1081 135.024 63.7441Z" fill="#17282F"/>
<path d="M137.568 72.9054C137.572 74.1361 136.615 75.1361 135.429 75.1361C134.244 75.1361 133.28 74.1387 133.276 72.9067C133.272 71.6761 134.229 70.6774 135.415 70.6761C136.6 70.6761 137.565 71.6734 137.568 72.9054Z" fill="#17282F"/>
<path d="M126.665 69.144L127.455 83.9654L134.484 82.104L126.665 69.144Z" fill="#F47089"/>
<path d="M2.1292 130.212C4.4344 131.457 13.8339 138.063 18.9375 138.636C21.1 138.877 21.6864 138.529 21.6 137.967C21.4828 137.199 20.1203 136.032 19.7875 135.407C19.2104 134.321 15.774 129.787 17.1027 127.431C18.4312 125.076 19.5902 127.336 22.7746 130.441C25.9579 133.545 29.1995 134.617 31.9834 138.244C34.7667 141.869 35.6974 147.593 40.3084 151.723L58.6907 164.261C58.6907 164.261 67.2484 124.539 71.0036 119.863C74.949 114.947 92.1735 125.665 88.5724 141.301C84.9714 156.936 76.7979 184.059 71.1246 189.388C67.4547 192.835 59.7016 189.579 50.0328 180.979C42.397 174.188 31.923 163.947 27.561 160.369C23.199 156.792 13.9255 154.809 9.69639 152.317C5.15524 149.641 4.15836 148.084 2.41461 144.56C0.771903 141.239 1.50576 135.921 0.53232 133.913C-0.440597 131.904 -0.176013 128.967 2.1292 130.212Z" fill="#F6879F"/>
<path d="M85.2646 109.435C91.1506 113.123 91.449 118.484 91.7412 124.611C92.0104 130.251 90.8766 138.035 88.3844 145.728C85.8844 153.445 81.9235 167.544 81.9235 167.544C81.9235 167.544 66.536 167.9 58.6188 161.06C58.6188 161.06 62.2303 145.868 64.7792 134.445C67.3276 123.021 70.4271 110.728 85.2646 109.435Z" fill="#2D3748"/>
<path d="M58.6907 164.261C62.8839 166.593 65.3469 171.608 66.1188 173.588C66.1188 173.588 65.9885 166.544 59.1219 162.217L58.6907 164.261Z" fill="#F47089"/>
<path d="M218.316 452.443L321.221 511.856V533.745L218.316 474.332V452.443Z" fill="#26B6A6"/>
<path d="M321.221 533.745L218.316 474.332V452.443L321.221 511.856V533.745ZM268.261 500.611C269.16 501.112 270.009 501.349 270.765 501.349C271.423 501.349 272.009 501.169 272.496 500.827C273.085 500.475 274.616 499.553 274.797 499.449C275.853 498.841 276.509 497.541 276.509 495.683C276.509 491.964 273.899 487.444 270.679 485.584C269.747 485.047 268.867 484.792 268.085 484.792C267.517 484.792 267.003 484.927 266.559 485.184C266.373 485.292 264.752 486.267 264.2 486.596C263.051 487.163 262.331 488.504 262.331 490.456C262.331 494.173 264.941 498.695 268.161 500.553C268.195 500.573 268.228 500.592 268.261 500.611Z" fill="#06A088"/>
<path d="M424.127 452.443L321.221 511.856V533.745L424.127 474.332V452.443Z" fill="#26B6A6"/>
<path d="M321.221 533.745V511.856L424.127 452.443V474.332L321.221 533.745Z" fill="#14B099"/>
<path d="M424.127 452.443L321.22 393.031L218.316 452.443L321.221 511.856L424.127 452.443Z" fill="#26B6A6"/>
<path d="M321.221 511.856V505.603L229.147 452.443H218.316L321.22 393.031L424.127 452.443L321.22 393.031L321.221 399.285L413.295 452.443H424.127L321.221 511.856Z" fill="#19B19D"/>
<path d="M321.221 511.856L218.316 452.443H229.147L321.221 505.603V511.856Z" fill="#0FAE96"/>
<path d="M424.127 452.443H413.295L321.221 399.285L321.22 393.031L424.127 452.443Z" fill="#0FAE96"/>
<path d="M424.127 452.444H413.295L321.221 505.603V511.856L424.127 452.444Z" fill="#26B6A6"/>
<path d="M321.22 393.031L321.221 399.285L229.147 452.444H218.316L321.22 393.031Z" fill="#26B6A6"/>
<path d="M321.593 426.699L365.812 452.229C369.12 454.139 369.12 457.236 365.812 459.147L332.832 478.188C329.523 480.097 324.159 480.097 320.849 478.188L276.631 452.657C273.323 450.748 273.323 447.651 276.631 445.74L309.611 426.699C312.919 424.789 318.283 424.789 321.593 426.699Z" fill="#273E47"/>
<path d="M332.832 478.188L364.721 459.776L321.593 434.876C318.283 432.965 312.919 432.965 309.611 434.876L277.721 453.287L320.849 478.188C324.159 480.097 329.523 480.097 332.832 478.188Z" fill="#33535F"/>
<path d="M294.895 452.481L314.237 441.313C314.875 440.944 315.911 440.944 316.548 441.309L318.929 442.676C319.567 443.043 319.568 443.639 318.929 444.007L299.587 455.176C298.949 455.544 297.915 455.545 297.276 455.179L294.896 453.812C294.257 453.444 294.257 452.849 294.895 452.481Z" fill="#17282F"/>
<path d="M323.788 469.188L343.131 458.02C343.768 457.652 344.803 457.651 345.441 458.017L347.821 459.383C348.46 459.751 348.461 460.346 347.823 460.713L328.481 471.883C327.843 472.251 326.808 472.252 326.169 471.885L323.789 470.518C323.151 470.152 323.151 469.556 323.788 469.188Z" fill="#17282F"/>
<path d="M276.509 495.683C276.509 491.964 273.899 487.444 270.679 485.584C269.068 484.655 267.613 484.572 266.559 485.184C266.347 485.308 264.251 486.568 264.035 486.694C262.984 487.303 262.332 488.603 262.332 490.456C262.332 494.173 264.941 498.695 268.161 500.553C269.775 501.485 271.231 501.567 272.285 500.952C272.496 500.829 274.584 499.572 274.797 499.449C275.853 498.841 276.509 497.541 276.509 495.683Z" fill="#26B6A6"/>
<path d="M270.765 501.349C270.009 501.349 269.16 501.112 268.261 500.611C269.157 501.11 270.003 501.347 270.755 501.347C271.324 501.347 271.84 501.211 272.285 500.952C272.317 500.934 272.392 500.889 272.496 500.827C272.009 501.17 271.423 501.349 270.765 501.349ZM268.161 500.553C264.941 498.695 262.331 494.173 262.331 490.456C262.331 488.504 263.051 487.163 264.2 486.596C264.12 486.644 264.061 486.679 264.035 486.694C262.984 487.303 262.332 488.603 262.332 490.456C262.332 494.173 264.941 498.695 268.161 500.553Z" fill="#088D7A"/>
<path d="M270.755 501.347C270.003 501.347 269.157 501.11 268.261 500.611C268.228 500.592 268.195 500.573 268.161 500.553C264.941 498.695 262.332 494.173 262.332 490.456C262.332 488.603 262.984 487.303 264.035 486.693C264.061 486.679 264.12 486.644 264.2 486.596C264.604 486.397 265.06 486.293 265.557 486.293C266.341 486.293 267.225 486.549 268.161 487.089C271.381 488.949 273.991 493.469 273.991 497.188C273.991 498.918 273.425 500.171 272.496 500.827C272.392 500.889 272.317 500.934 272.285 500.952C271.84 501.211 271.324 501.347 270.755 501.347Z" fill="#1DB3A0"/>
<path d="M200.509 529.682C193.795 529.682 187.08 528.171 181.848 525.152L113.584 485.739C108.097 482.571 105.077 478.199 105.077 473.428C105.077 468.659 108.098 464.287 113.584 461.118L192.68 415.452C201.345 410.449 208.668 397.769 208.668 387.763V137.456C208.668 135.983 209.861 134.789 211.335 134.789C212.807 134.789 214.001 135.983 214.001 137.456V387.763C214.001 399.84 205.807 414.033 195.347 420.072L116.251 465.739C112.484 467.913 110.41 470.644 110.41 473.428C110.41 476.213 112.484 478.944 116.251 481.118L184.515 520.532C193.331 525.622 207.677 525.623 216.492 520.536L266.828 491.491C268.105 490.753 269.735 491.192 270.471 492.467C271.207 493.743 270.769 495.375 269.495 496.111L219.159 525.156C213.929 528.172 207.22 529.682 200.509 529.682Z" fill="#273E47"/>
<path d="M75.3115 13.6561C75.2391 13.2801 75.3131 12.9281 75.5344 12.6001C75.7568 12.2695 76.0563 12.0695 76.4323 11.9975L82.9251 10.7468C83.3036 10.6735 83.6552 10.7494 83.9812 10.9708C84.312 11.1934 84.5115 11.4935 84.5839 11.8695L88.8615 34.0734C88.9339 34.4508 88.8604 34.8028 88.6375 35.1294C88.4172 35.4588 88.1178 35.6575 87.7391 35.7308L81.247 36.9814C80.8708 37.0534 80.5178 36.9801 80.1907 36.7588C79.8615 36.5375 79.6626 36.2374 79.5896 35.8601L75.3115 13.6561ZM80.7214 41.7321C80.6495 41.3548 80.7214 41.0015 80.9438 40.6721C81.1662 40.3455 81.4662 40.1454 81.8427 40.0734L88.335 38.8228C88.7131 38.7495 89.0646 38.8255 89.3918 39.0441C89.7203 39.2668 89.9208 39.5668 89.9938 39.9441L90.9959 45.1468C91.0688 45.5254 90.9954 45.8788 90.7703 46.2041C90.5511 46.5348 90.2522 46.7334 89.8735 46.8054L83.3812 48.0561C83.0047 48.1295 82.6527 48.0561 82.3235 47.8321C81.9959 47.6135 81.7964 47.3135 81.7235 46.9348L80.7214 41.7321Z" fill="#26B6A6"/>
<path d="M50.8197 42.192C50.564 41.9054 50.4469 41.5654 50.4677 41.1681C50.4901 40.7721 50.6427 40.4467 50.9287 40.192L55.8531 35.7814C56.1407 35.524 56.4823 35.4067 56.876 35.4294C57.2729 35.448 57.5973 35.604 57.8531 35.8894L72.9391 52.7334C73.1964 53.0187 73.3145 53.36 73.2901 53.756C73.2697 54.1507 73.1161 54.4761 72.8287 54.7334L67.9041 59.144C67.6183 59.3987 67.2781 59.5161 66.8817 59.4961C66.4885 59.4734 66.1631 59.3214 65.9057 59.0321L50.8197 42.192ZM69.8953 63.488C69.6391 63.2027 69.5208 62.8614 69.5421 62.4654C69.5661 62.0681 69.7183 61.744 70.0041 61.4894L74.9287 57.0787C75.2172 56.8214 75.5579 56.7027 75.95 56.7254C76.3479 56.748 76.6735 56.9 76.9292 57.1867L80.4645 61.1347C80.7224 61.4227 80.8396 61.7614 80.8161 62.1574C80.7959 62.5507 80.6401 62.8774 80.3536 63.1347L75.4292 67.5454C75.1432 67.8014 74.8041 67.9187 74.4079 67.8961C74.0125 67.8774 73.6869 67.7214 73.4303 67.4361L69.8953 63.488Z" fill="#26B6A6"/>
<path d="M74.5011 67.8987C74.4703 67.8987 74.4391 67.8987 74.4079 67.8961C74.0126 67.8774 73.687 67.7214 73.4303 67.4361L69.8954 63.4881C69.6588 63.2254 69.5402 62.9147 69.5396 62.5574C69.5396 62.5267 69.5401 62.4961 69.5421 62.4654C69.5661 62.0681 69.7183 61.7441 70.0042 61.4894L74.9287 57.0787C75.1938 56.8414 75.5027 56.7227 75.8558 56.7227C75.887 56.7227 75.9183 56.7241 75.95 56.7254C76.3479 56.7481 76.6735 56.9001 76.9292 57.1867L80.4646 61.1347C80.7 61.3974 80.8183 61.7027 80.8194 62.0561C80.8194 62.0894 80.8183 62.1241 80.8161 62.1574C80.7959 62.5507 80.6401 62.8774 80.3536 63.1347L75.4292 67.5454C75.1662 67.7814 74.8579 67.8987 74.5011 67.8987ZM66.9662 59.4987C66.938 59.4987 66.9104 59.4974 66.8818 59.4961C66.4886 59.4734 66.1631 59.3214 65.9058 59.0321L50.8198 42.1921C50.5839 41.9281 50.4662 41.6174 50.4651 41.2601C50.4651 41.2294 50.4662 41.2001 50.4678 41.1681C50.4902 40.7721 50.6427 40.4467 50.9287 40.1921L55.8531 35.7814C56.1178 35.5454 56.4276 35.4267 56.7818 35.4267C56.8131 35.4267 56.8443 35.4267 56.876 35.4294C57.273 35.448 57.5974 35.6041 57.8531 35.8894L72.9391 52.7334C73.174 52.9947 73.2932 53.3014 73.2932 53.6561C73.2932 53.6894 73.2922 53.7227 73.2902 53.7561C73.2698 54.1507 73.1162 54.4761 72.8287 54.7334L67.9042 59.1441C67.6386 59.3801 67.3266 59.4987 66.9662 59.4987Z" fill="#87D6CB"/>
<path d="M248.521 97.04C248.749 97.04 248.945 97.124 249.111 97.2893C249.276 97.4546 249.359 97.6507 249.359 97.8773V101.161C249.359 101.389 249.276 101.585 249.111 101.751C248.945 101.916 248.749 101.999 248.521 101.999H233.836C233.608 101.999 233.412 101.916 233.247 101.751C233.081 101.585 233 101.389 233 101.161V81.1466C233 80.9186 233.081 80.7226 233.247 80.5573C233.412 80.392 233.608 80.3093 233.836 80.3093H248.275C248.501 80.3093 248.697 80.392 248.863 80.5573C249.028 80.7226 249.111 80.9186 249.111 81.1466V84.4307C249.111 84.6573 249.028 84.8546 248.863 85.0186C248.697 85.1853 248.501 85.268 248.275 85.268H238.731V88.6133H247.592C247.82 88.6133 248.015 88.696 248.181 88.8613C248.345 89.0267 248.429 89.2226 248.429 89.4493V92.7347C248.429 92.9613 248.345 93.1573 248.181 93.3226C248.015 93.488 247.82 93.5707 247.592 93.5707H238.731V97.04H248.521Z" fill="#26B6A6"/>
<path d="M258.653 89.6973H262.155C263.021 89.6973 263.739 89.5333 264.308 89.2013C264.876 88.872 265.16 88.2733 265.16 87.404C265.16 86.5373 264.876 85.9387 264.308 85.608C263.739 85.2773 263.021 85.112 262.155 85.112H258.653V89.6973ZM262.155 80.3093C263.517 80.3093 264.736 80.4547 265.811 80.7427C266.884 81.0333 267.797 81.4667 268.553 82.044C269.307 82.6227 269.885 83.3613 270.287 84.26C270.691 85.1587 270.892 86.2067 270.892 87.404C270.892 88.9547 270.571 90.24 269.932 91.2627C269.291 92.2853 268.383 93.0653 267.205 93.6013L271.047 100.976C271.109 101.1 271.14 101.213 271.14 101.316C271.14 101.503 271.072 101.663 270.939 101.797C270.804 101.931 270.644 101.999 270.457 101.999H266.244C265.831 101.999 265.536 101.905 265.361 101.72C265.185 101.533 265.047 101.348 264.943 101.161L261.504 94.5307H258.653V101.161C258.653 101.389 258.569 101.585 258.405 101.751C258.239 101.916 258.044 101.999 257.816 101.999H253.757C253.529 101.999 253.335 101.916 253.169 101.751C253.004 101.585 252.921 101.389 252.921 101.161V81.1466C252.921 80.9186 253.004 80.7226 253.169 80.5573C253.335 80.392 253.529 80.3093 253.757 80.3093H262.155Z" fill="#26B6A6"/>
<path d="M280.187 89.6973H283.688C284.556 89.6973 285.273 89.5333 285.841 89.2013C286.409 88.872 286.693 88.2733 286.693 87.404C286.693 86.5373 286.409 85.9387 285.841 85.608C285.273 85.2773 284.556 85.112 283.688 85.112H280.187V89.6973ZM283.688 80.3093C285.052 80.3093 286.271 80.4547 287.344 80.7427C288.417 81.0333 289.332 81.4667 290.087 82.044C290.84 82.6227 291.419 83.3613 291.821 84.26C292.225 85.1587 292.425 86.2067 292.425 87.404C292.425 88.9547 292.105 90.24 291.465 91.2627C290.825 92.2853 289.916 93.0653 288.739 93.6013L292.58 100.976C292.643 101.1 292.673 101.213 292.673 101.316C292.673 101.503 292.607 101.663 292.472 101.797C292.339 101.931 292.177 101.999 291.992 101.999H287.779C287.364 101.999 287.069 101.905 286.895 101.72C286.72 101.533 286.58 101.348 286.476 101.161L283.037 94.5307H280.187V101.161C280.187 101.389 280.104 101.585 279.94 101.751C279.773 101.916 279.577 101.999 279.349 101.999H275.291C275.063 101.999 274.868 101.916 274.703 101.751C274.537 101.585 274.455 101.389 274.455 101.161V81.1466C274.455 80.9186 274.537 80.7226 274.703 80.5573C274.868 80.392 275.063 80.3093 275.291 80.3093H283.688Z" fill="#26B6A6"/>
<path d="M308.879 93.756C308.897 93.3853 308.919 92.972 308.94 92.5173C308.96 92.064 308.971 91.5986 308.971 91.1226C308.971 90.648 308.96 90.188 308.94 89.744C308.919 89.3 308.897 88.9026 308.879 88.5506C308.837 88.0346 308.728 87.56 308.553 87.1253C308.377 86.692 308.129 86.316 307.809 85.9946C307.489 85.676 307.091 85.4226 306.617 85.236C306.141 85.0506 305.583 84.9573 304.944 84.9573C304.303 84.9573 303.744 85.0506 303.271 85.236C302.795 85.4226 302.396 85.676 302.077 85.9946C301.756 86.316 301.508 86.692 301.333 87.1253C301.157 87.56 301.049 88.0346 301.008 88.5506C300.967 88.9026 300.941 89.3 300.931 89.744C300.92 90.188 300.915 90.648 300.915 91.1226C300.915 91.5986 300.92 92.064 300.931 92.5173C300.941 92.972 300.967 93.3853 301.008 93.756C301.091 94.7893 301.447 95.6466 302.077 96.328C302.707 97.0106 303.663 97.3506 304.944 97.3506C306.224 97.3506 307.173 97.0106 307.793 96.328C308.413 95.6466 308.775 94.7893 308.879 93.756ZM295.276 88.396C295.339 87.24 295.591 86.1493 296.035 85.128C296.479 84.1053 297.109 83.2173 297.925 82.464C298.74 81.7093 299.732 81.1106 300.899 80.6653C302.065 80.2213 303.413 80 304.944 80C306.451 80 307.793 80.2213 308.971 80.6653C310.148 81.1106 311.145 81.7093 311.96 82.464C312.777 83.2173 313.407 84.1053 313.851 85.128C314.295 86.1493 314.548 87.24 314.611 88.396C314.652 89.2853 314.672 90.2146 314.672 91.1853C314.672 92.156 314.652 93.0653 314.611 93.912C314.548 95.068 314.295 96.1573 313.851 97.18C313.407 98.2026 312.777 99.0973 311.96 99.86C311.145 100.625 310.148 101.224 308.971 101.657C307.793 102.092 306.451 102.308 304.944 102.308C303.413 102.308 302.065 102.092 300.899 101.657C299.732 101.224 298.74 100.625 297.925 99.86C297.109 99.0973 296.479 98.2026 296.035 97.18C295.591 96.1573 295.339 95.068 295.276 93.912C295.233 93.0653 295.215 92.156 295.215 91.1853C295.215 90.2146 295.233 89.2853 295.276 88.396Z" fill="#26B6A6"/>
<path d="M343.775 93.3361V87.6348L339.251 93.3361H343.775ZM344.455 102.291C344.228 102.291 344.032 102.208 343.867 102.043C343.701 101.877 343.62 101.681 343.62 101.453V98.2934H333.86C333.632 98.2934 333.436 98.2108 333.271 98.0454C333.104 97.8801 333.023 97.6841 333.023 97.4574V94.1721C333.023 93.6361 333.157 93.1921 333.427 92.8401L342.689 81.1601C342.876 80.9321 343.047 80.7828 343.201 80.7108C343.356 80.6388 343.567 80.6014 343.836 80.6014H348.515C348.743 80.6014 348.937 80.6841 349.104 80.8494C349.267 81.0148 349.351 81.2108 349.351 81.4388V93.3361H352.015C352.243 93.3361 352.437 93.4188 352.604 93.5841C352.769 93.7494 352.853 93.9454 352.853 94.1721V97.4574C352.853 97.6841 352.769 97.8801 352.604 98.0454C352.437 98.2108 352.243 98.2934 352.015 98.2934H349.351V101.453C349.351 101.681 349.267 101.877 349.104 102.043C348.937 102.208 348.743 102.291 348.515 102.291H344.455Z" fill="#26B6A6"/>
<path d="M367.817 94.0481C367.899 92.2934 367.899 90.5587 367.817 88.8427C367.776 88.3267 367.699 87.8521 367.584 87.4174C367.471 86.9841 367.289 86.6081 367.043 86.2868C366.795 85.9681 366.465 85.7148 366.052 85.5281C365.637 85.3428 365.121 85.2494 364.503 85.2494C363.881 85.2494 363.365 85.3428 362.953 85.5281C362.539 85.7148 362.209 85.9681 361.96 86.2868C361.713 86.6081 361.527 86.9841 361.404 87.4174C361.28 87.8521 361.207 88.3267 361.188 88.8427C361.083 90.5587 361.083 92.2934 361.188 94.0481C361.207 94.5654 361.275 95.0401 361.387 95.4747C361.5 95.9081 361.688 96.2841 361.947 96.6054C362.204 96.9254 362.539 97.1774 362.953 97.3641C363.365 97.5508 363.881 97.6427 364.503 97.6427C365.121 97.6427 365.637 97.5508 366.052 97.3641C366.465 97.1774 366.799 96.9254 367.059 96.6054C367.316 96.2841 367.503 95.9081 367.615 95.4747C367.728 95.0401 367.797 94.5654 367.817 94.0481ZM364.503 80.2921C366.052 80.2921 367.383 80.5201 368.499 80.9734C369.615 81.4281 370.539 82.0374 371.271 82.8014C372.004 83.5654 372.553 84.4587 372.915 85.4814C373.276 86.5041 373.487 87.5734 373.548 88.6881C373.592 89.5774 373.611 90.5067 373.611 91.4774C373.611 92.4481 373.592 93.3574 373.548 94.2041C373.487 95.3187 373.276 96.3881 372.915 97.4107C372.553 98.4334 372.004 99.3268 371.271 100.091C370.539 100.855 369.615 101.464 368.499 101.919C367.383 102.372 366.052 102.6 364.503 102.6C362.953 102.6 361.62 102.372 360.504 101.919C359.388 101.464 358.465 100.855 357.732 100.091C356.999 99.3268 356.451 98.4334 356.089 97.4107C355.727 96.3881 355.516 95.3187 355.453 94.2041C355.412 93.3574 355.392 92.4481 355.392 91.4774C355.392 90.5067 355.412 89.5774 355.453 88.6881C355.516 87.5734 355.727 86.5041 356.089 85.4814C356.451 84.4587 356.999 83.5654 357.732 82.8014C358.465 82.0374 359.388 81.4281 360.504 80.9734C361.62 80.5201 362.953 80.2921 364.503 80.2921Z" fill="#26B6A6"/>
<path d="M386.872 93.3361V87.6348L382.348 93.3361H386.872ZM387.553 102.291C387.325 102.291 387.131 102.208 386.965 102.043C386.799 101.877 386.716 101.681 386.716 101.453V98.2934H376.956C376.728 98.2934 376.533 98.2108 376.368 98.0454C376.204 97.8801 376.12 97.6841 376.12 97.4574V94.1721C376.12 93.6361 376.255 93.1921 376.523 92.8401L385.787 81.1601C385.973 80.9321 386.144 80.7828 386.299 80.7108C386.453 80.6388 386.665 80.6014 386.932 80.6014H391.613C391.839 80.6014 392.035 80.6841 392.201 80.8494C392.365 81.0148 392.448 81.2108 392.448 81.4388V93.3361H395.113C395.341 93.3361 395.537 93.4188 395.704 93.5841C395.867 93.7494 395.949 93.9454 395.949 94.1721V97.4574C395.949 97.6841 395.867 97.8801 395.704 98.0454C395.537 98.2108 395.341 98.2934 395.113 98.2934H392.448V101.453C392.448 101.681 392.365 101.877 392.201 102.043C392.035 102.208 391.839 102.291 391.613 102.291H387.553Z" fill="#26B6A6"/>
<path d="M224.734 25V2.59998H234.43C236.435 2.59998 238.163 2.93065 239.614 3.59198C241.065 4.23198 242.185 5.15998 242.974 6.37598C243.763 7.59198 244.158 9.04265 244.158 10.728C244.158 12.392 243.763 13.832 242.974 15.048C242.185 16.264 241.065 17.2027 239.614 17.864C238.163 18.504 236.435 18.824 234.43 18.824H227.614L229.918 16.488V25H224.734ZM229.918 17.064L227.614 14.6H234.142C235.742 14.6 236.937 14.2587 237.726 13.576C238.515 12.8933 238.91 11.944 238.91 10.728C238.91 9.49065 238.515 8.53065 237.726 7.84798C236.937 7.16531 235.742 6.82398 234.142 6.82398H227.614L229.918 4.35998V17.064ZM257.911 25V21.64L257.591 20.904V14.888C257.591 13.8213 257.26 12.9893 256.599 12.392C255.959 11.7947 254.967 11.496 253.623 11.496C252.706 11.496 251.799 11.6453 250.903 11.944C250.028 12.2213 249.282 12.6053 248.663 13.096L246.871 9.60798C247.81 8.94665 248.94 8.43465 250.263 8.07198C251.586 7.70931 252.93 7.52798 254.295 7.52798C256.919 7.52798 258.956 8.14665 260.407 9.38398C261.858 10.6213 262.583 12.552 262.583 15.176V25H257.911ZM252.663 25.256C251.319 25.256 250.167 25.032 249.207 24.584C248.247 24.1147 247.511 23.4853 246.999 22.696C246.487 21.9067 246.231 21.0213 246.231 20.04C246.231 19.016 246.476 18.12 246.967 17.352C247.479 16.584 248.279 15.9867 249.367 15.56C250.455 15.112 251.874 14.888 253.623 14.888H258.199V17.8H254.167C252.994 17.8 252.183 17.992 251.735 18.376C251.308 18.76 251.095 19.24 251.095 19.816C251.095 20.456 251.34 20.968 251.831 21.352C252.343 21.7147 253.036 21.896 253.911 21.896C254.743 21.896 255.49 21.704 256.151 21.32C256.812 20.9147 257.292 20.328 257.591 19.56L258.359 21.864C257.996 22.9733 257.335 23.816 256.375 24.392C255.415 24.968 254.178 25.256 252.663 25.256ZM251.895 5.57598L256.215 0.96798H261.591L255.799 5.57598H251.895ZM275.322 31.464C273.701 31.464 272.133 31.2613 270.618 30.856C269.125 30.472 267.877 29.8853 266.874 29.096L268.858 25.512C269.583 26.1093 270.501 26.5787 271.61 26.92C272.741 27.2827 273.85 27.464 274.938 27.464C276.709 27.464 277.989 27.0693 278.778 26.28C279.589 25.4907 279.994 24.3173 279.994 22.76V20.168L280.314 15.848L280.25 11.496V7.78398H284.986V22.12C284.986 25.32 284.154 27.6773 282.49 29.192C280.826 30.7067 278.437 31.464 275.322 31.464ZM274.554 24.168C272.954 24.168 271.503 23.8267 270.202 23.144C268.922 22.44 267.887 21.4693 267.098 20.232C266.33 18.9733 265.946 17.512 265.946 15.848C265.946 14.1627 266.33 12.7013 267.098 11.464C267.887 10.2053 268.922 9.23465 270.202 8.55198C271.503 7.86931 272.954 7.52798 274.554 7.52798C276.005 7.52798 277.285 7.82665 278.394 8.42398C279.503 8.99998 280.367 9.90665 280.986 11.144C281.605 12.36 281.914 13.928 281.914 15.848C281.914 17.7467 281.605 19.3147 280.986 20.552C280.367 21.768 279.503 22.6747 278.394 23.272C277.285 23.8693 276.005 24.168 274.554 24.168ZM275.546 20.072C276.421 20.072 277.199 19.9013 277.882 19.56C278.565 19.1973 279.098 18.696 279.482 18.056C279.866 17.416 280.058 16.68 280.058 15.848C280.058 14.9947 279.866 14.2587 279.482 13.64C279.098 13 278.565 12.5093 277.882 12.168C277.199 11.8053 276.421 11.624 275.546 11.624C274.671 11.624 273.893 11.8053 273.21 12.168C272.527 12.5093 271.983 13 271.578 13.64C271.194 14.2587 271.002 14.9947 271.002 15.848C271.002 16.68 271.194 17.416 271.578 18.056C271.983 18.696 272.527 19.1973 273.21 19.56C273.893 19.9013 274.671 20.072 275.546 20.072ZM289.632 25V7.78398H294.624V25H289.632ZM292.128 5.38398C291.211 5.38398 290.464 5.11731 289.888 4.58398C289.312 4.05065 289.024 3.38931 289.024 2.59998C289.024 1.81065 289.312 1.14931 289.888 0.61598C290.464 0.0826461 291.211 -0.184021 292.128 -0.184021C293.045 -0.184021 293.792 0.0719796 294.368 0.583981C294.944 1.07465 295.232 1.71465 295.232 2.50398C295.232 3.33598 294.944 4.02931 294.368 4.58398C293.813 5.11731 293.067 5.38398 292.128 5.38398ZM309.721 7.52798C311.086 7.52798 312.302 7.80531 313.369 8.35998C314.457 8.89331 315.31 9.72531 315.929 10.856C316.548 11.9653 316.857 13.3947 316.857 15.144V25H311.865V15.912C311.865 14.5253 311.556 13.5013 310.937 12.84C310.34 12.1787 309.486 11.848 308.377 11.848C307.588 11.848 306.873 12.0187 306.233 12.36C305.614 12.68 305.124 13.1813 304.761 13.864C304.42 14.5467 304.249 15.4213 304.249 16.488V25H299.257V7.78398H304.025V12.552L303.129 11.112C303.748 9.95998 304.633 9.07465 305.785 8.45598C306.937 7.83731 308.249 7.52798 309.721 7.52798ZM331.942 25V21.64L331.622 20.904V14.888C331.622 13.8213 331.291 12.9893 330.63 12.392C329.99 11.7947 328.998 11.496 327.654 11.496C326.737 11.496 325.83 11.6453 324.934 11.944C324.059 12.2213 323.313 12.6053 322.694 13.096L320.902 9.60798C321.841 8.94665 322.971 8.43465 324.294 8.07198C325.617 7.70931 326.961 7.52798 328.326 7.52798C330.95 7.52798 332.987 8.14665 334.438 9.38398C335.889 10.6213 336.614 12.552 336.614 15.176V25H331.942ZM326.694 25.256C325.35 25.256 324.198 25.032 323.238 24.584C322.278 24.1147 321.542 23.4853 321.03 22.696C320.518 21.9067 320.262 21.0213 320.262 20.04C320.262 19.016 320.507 18.12 320.998 17.352C321.51 16.584 322.31 15.9867 323.398 15.56C324.486 15.112 325.905 14.888 327.654 14.888H332.23V17.8H328.198C327.025 17.8 326.214 17.992 325.766 18.376C325.339 18.76 325.126 19.24 325.126 19.816C325.126 20.456 325.371 20.968 325.862 21.352C326.374 21.7147 327.067 21.896 327.942 21.896C328.774 21.896 329.521 21.704 330.182 21.32C330.843 20.9147 331.323 20.328 331.622 19.56L332.39 21.864C332.027 22.9733 331.366 23.816 330.406 24.392C329.446 24.968 328.209 25.256 326.694 25.256ZM360.659 7.52798C362.024 7.52798 363.24 7.80531 364.307 8.35998C365.395 8.89331 366.248 9.72531 366.867 10.856C367.485 11.9653 367.795 13.3947 367.795 15.144V25H362.803V15.912C362.803 14.5253 362.493 13.5013 361.875 12.84C361.277 12.1787 360.424 11.848 359.315 11.848C358.525 11.848 357.811 12.0187 357.171 12.36C356.552 12.68 356.061 13.1813 355.699 13.864C355.357 14.5467 355.187 15.4213 355.187 16.488V25H350.195V7.78398H354.963V12.552L354.067 11.112C354.685 9.95998 355.571 9.07465 356.723 8.45598C357.875 7.83731 359.187 7.52798 360.659 7.52798ZM382.88 25V21.64L382.56 20.904V14.888C382.56 13.8213 382.229 12.9893 381.568 12.392C380.928 11.7947 379.936 11.496 378.592 11.496C377.674 11.496 376.768 11.6453 375.872 11.944C374.997 12.2213 374.25 12.6053 373.632 13.096L371.84 9.60798C372.778 8.94665 373.909 8.43465 375.232 8.07198C376.554 7.70931 377.898 7.52798 379.264 7.52798C381.888 7.52798 383.925 8.14665 385.376 9.38398C386.826 10.6213 387.552 12.552 387.552 15.176V25H382.88ZM377.632 25.256C376.288 25.256 375.136 25.032 374.176 24.584C373.216 24.1147 372.48 23.4853 371.968 22.696C371.456 21.9067 371.2 21.0213 371.2 20.04C371.2 19.016 371.445 18.12 371.936 17.352C372.448 16.584 373.248 15.9867 374.336 15.56C375.424 15.112 376.842 14.888 378.592 14.888H383.168V17.8H379.136C377.962 17.8 377.152 17.992 376.704 18.376C376.277 18.76 376.064 19.24 376.064 19.816C376.064 20.456 376.309 20.968 376.8 21.352C377.312 21.7147 378.005 21.896 378.88 21.896C379.712 21.896 380.458 21.704 381.12 21.32C381.781 20.9147 382.261 20.328 382.56 19.56L383.328 21.864C382.965 22.9733 382.304 23.816 381.344 24.392C380.384 24.968 379.146 25.256 377.632 25.256ZM382.176 5.67198C381.621 5.67198 381.13 5.57598 380.704 5.38398C380.277 5.17065 379.893 4.93598 379.552 4.67998C379.21 4.40265 378.89 4.16798 378.592 3.97598C378.293 3.76265 377.994 3.65598 377.696 3.65598C377.269 3.65598 376.917 3.81598 376.64 4.13598C376.362 4.43465 376.202 4.87198 376.16 5.44798H373.632C373.674 4.01865 374.026 2.88798 374.688 2.05598C375.349 1.20265 376.245 0.77598 377.376 0.77598C377.93 0.77598 378.421 0.882647 378.848 1.09598C379.274 1.28798 379.658 1.52265 380 1.79998C380.362 2.07731 380.693 2.32265 380.992 2.53598C381.29 2.72798 381.578 2.82398 381.856 2.82398C382.304 2.82398 382.666 2.67465 382.944 2.37598C383.221 2.05598 383.37 1.62931 383.392 1.09598H385.92C385.898 2.46131 385.546 3.57065 384.864 4.42398C384.202 5.25598 383.306 5.67198 382.176 5.67198ZM400.387 25.256C398.552 25.256 396.92 24.872 395.491 24.104C394.083 23.336 392.963 22.2907 392.131 20.968C391.32 19.624 390.915 18.0987 390.915 16.392C390.915 14.664 391.32 13.1387 392.131 11.816C392.963 10.472 394.083 9.42665 395.491 8.67998C396.92 7.91198 398.552 7.52798 400.387 7.52798C402.2 7.52798 403.821 7.91198 405.251 8.67998C406.68 9.42665 407.8 10.4613 408.611 11.784C409.421 13.1067 409.827 14.6427 409.827 16.392C409.827 18.0987 409.421 19.624 408.611 20.968C407.8 22.2907 406.68 23.336 405.251 24.104C403.821 24.872 402.2 25.256 400.387 25.256ZM400.387 21.16C401.219 21.16 401.965 20.968 402.627 20.584C403.288 20.2 403.811 19.656 404.195 18.952C404.579 18.2267 404.771 17.3733 404.771 16.392C404.771 15.3893 404.579 14.536 404.195 13.832C403.811 13.128 403.288 12.584 402.627 12.2C401.965 11.816 401.219 11.624 400.387 11.624C399.555 11.624 398.808 11.816 398.147 12.2C397.485 12.584 396.952 13.128 396.547 13.832C396.163 14.536 395.971 15.3893 395.971 16.392C395.971 17.3733 396.163 18.2267 396.547 18.952C396.952 19.656 397.485 20.2 398.147 20.584C398.808 20.968 399.555 21.16 400.387 21.16ZM235.629 64.256C233.667 64.256 231.939 63.872 230.445 63.104C228.973 62.336 227.832 61.2907 227.021 59.968C226.211 58.624 225.805 57.0987 225.805 55.392C225.805 53.664 226.2 52.1387 226.989 50.816C227.8 49.472 228.899 48.4267 230.285 47.68C231.672 46.912 233.24 46.528 234.989 46.528C236.675 46.528 238.189 46.8907 239.533 47.616C240.899 48.32 241.976 49.344 242.765 50.688C243.555 52.0107 243.949 53.6 243.949 55.456C243.949 55.648 243.939 55.872 243.917 56.128C243.896 56.3627 243.875 56.5867 243.853 56.8H229.869V53.888H241.229L239.309 54.752C239.309 53.856 239.128 53.0773 238.765 52.416C238.403 51.7547 237.901 51.2427 237.261 50.88C236.621 50.496 235.875 50.304 235.021 50.304C234.168 50.304 233.411 50.496 232.749 50.88C232.109 51.2427 231.608 51.7653 231.245 52.448C230.883 53.1093 230.701 53.8987 230.701 54.816V55.584C230.701 56.5227 230.904 57.3547 231.309 58.08C231.736 58.784 232.323 59.328 233.069 59.712C233.837 60.0747 234.733 60.256 235.757 60.256C236.675 60.256 237.475 60.1173 238.157 59.84C238.861 59.5627 239.501 59.1467 240.077 58.592L242.733 61.472C241.944 62.368 240.952 63.0613 239.757 63.552C238.563 64.0213 237.187 64.256 235.629 64.256ZM257.737 46.528C259.102 46.528 260.318 46.8053 261.385 47.36C262.473 47.8933 263.326 48.7253 263.945 49.856C264.563 50.9653 264.873 52.3947 264.873 54.144V64H259.881V54.912C259.881 53.5253 259.571 52.5013 258.953 51.84C258.355 51.1787 257.502 50.848 256.393 50.848C255.603 50.848 254.889 51.0187 254.249 51.36C253.63 51.68 253.139 52.1813 252.777 52.864C252.435 53.5467 252.265 54.4213 252.265 55.488V64H247.273V46.784H252.041V51.552L251.145 50.112C251.763 48.96 252.649 48.0747 253.801 47.456C254.953 46.8373 256.265 46.528 257.737 46.528ZM277.843 64.256C275.987 64.256 274.333 63.8827 272.883 63.136C271.432 62.368 270.291 61.312 269.459 59.968C268.648 58.624 268.243 57.0987 268.243 55.392C268.243 53.664 268.648 52.1387 269.459 50.816C270.291 49.472 271.432 48.4267 272.883 47.68C274.333 46.912 275.987 46.528 277.843 46.528C279.656 46.528 281.235 46.912 282.579 47.68C283.923 48.4267 284.915 49.504 285.555 50.912L281.683 52.992C281.235 52.1813 280.669 51.584 279.987 51.2C279.325 50.816 278.6 50.624 277.811 50.624C276.957 50.624 276.189 50.816 275.507 51.2C274.824 51.584 274.28 52.128 273.875 52.832C273.491 53.536 273.299 54.3893 273.299 55.392C273.299 56.3947 273.491 57.248 273.875 57.952C274.28 58.656 274.824 59.2 275.507 59.584C276.189 59.968 276.957 60.16 277.811 60.16C278.6 60.16 279.325 59.9787 279.987 59.616C280.669 59.232 281.235 58.624 281.683 57.792L285.555 59.904C284.915 61.2907 283.923 62.368 282.579 63.136C281.235 63.8827 279.656 64.256 277.843 64.256ZM296.402 64.256C294.568 64.256 292.936 63.872 291.506 63.104C290.098 62.336 288.978 61.2907 288.146 59.968C287.336 58.624 286.93 57.0987 286.93 55.392C286.93 53.664 287.336 52.1387 288.146 50.816C288.978 49.472 290.098 48.4267 291.506 47.68C292.936 46.912 294.568 46.528 296.402 46.528C298.216 46.528 299.837 46.912 301.266 47.68C302.696 48.4267 303.816 49.4613 304.626 50.784C305.437 52.1067 305.842 53.6427 305.842 55.392C305.842 57.0987 305.437 58.624 304.626 59.968C303.816 61.2907 302.696 62.336 301.266 63.104C299.837 63.872 298.216 64.256 296.402 64.256ZM296.402 60.16C297.234 60.16 297.981 59.968 298.642 59.584C299.304 59.2 299.826 58.656 300.21 57.952C300.594 57.2267 300.786 56.3733 300.786 55.392C300.786 54.3893 300.594 53.536 300.21 52.832C299.826 52.128 299.304 51.584 298.642 51.2C297.981 50.816 297.234 50.624 296.402 50.624C295.57 50.624 294.824 50.816 294.162 51.2C293.501 51.584 292.968 52.128 292.562 52.832C292.178 53.536 291.986 54.3893 291.986 55.392C291.986 56.3733 292.178 57.2267 292.562 57.952C292.968 58.656 293.501 59.2 294.162 59.584C294.824 59.968 295.57 60.16 296.402 60.16ZM319.643 46.528C321.008 46.528 322.224 46.8053 323.291 47.36C324.379 47.8933 325.232 48.7253 325.851 49.856C326.47 50.9653 326.779 52.3947 326.779 54.144V64H321.787V54.912C321.787 53.5253 321.478 52.5013 320.859 51.84C320.262 51.1787 319.408 50.848 318.299 50.848C317.51 50.848 316.795 51.0187 316.155 51.36C315.536 51.68 315.046 52.1813 314.683 52.864C314.342 53.5467 314.171 54.4213 314.171 55.488V64H309.179V46.784H313.947V51.552L313.051 50.112C313.67 48.96 314.555 48.0747 315.707 47.456C316.859 46.8373 318.171 46.528 319.643 46.528ZM338.344 64.256C336.317 64.256 334.739 63.744 333.608 62.72C332.477 61.6747 331.912 60.128 331.912 58.08V42.976H336.904V58.016C336.904 58.7413 337.096 59.3067 337.48 59.712C337.864 60.096 338.387 60.288 339.048 60.288C339.837 60.288 340.509 60.0747 341.064 59.648L342.408 63.168C341.896 63.5307 341.277 63.808 340.552 64C339.848 64.1707 339.112 64.256 338.344 64.256ZM329.256 51.008V47.168H341.192V51.008H329.256ZM345.21 64V46.784H349.978V51.648L349.306 50.24C349.818 49.024 350.64 48.1067 351.77 47.488C352.901 46.848 354.277 46.528 355.898 46.528V51.136C355.685 51.1147 355.493 51.104 355.322 51.104C355.152 51.0827 354.97 51.072 354.778 51.072C353.413 51.072 352.304 51.4667 351.45 52.256C350.618 53.024 350.202 54.2293 350.202 55.872V64H345.21ZM368.302 64V60.64L367.982 59.904V53.888C367.982 52.8213 367.651 51.9893 366.99 51.392C366.35 50.7947 365.358 50.496 364.014 50.496C363.096 50.496 362.19 50.6453 361.294 50.944C360.419 51.2213 359.672 51.6053 359.054 52.096L357.262 48.608C358.2 47.9467 359.331 47.4347 360.654 47.072C361.976 46.7093 363.32 46.528 364.686 46.528C367.31 46.528 369.347 47.1467 370.798 48.384C372.248 49.6213 372.974 51.552 372.974 54.176V64H368.302ZM363.054 64.256C361.71 64.256 360.558 64.032 359.598 63.584C358.638 63.1147 357.902 62.4853 357.39 61.696C356.878 60.9067 356.622 60.0213 356.622 59.04C356.622 58.016 356.867 57.12 357.358 56.352C357.87 55.584 358.67 54.9867 359.758 54.56C360.846 54.112 362.264 53.888 364.014 53.888H368.59V56.8H364.558C363.384 56.8 362.574 56.992 362.126 57.376C361.699 57.76 361.486 58.24 361.486 58.816C361.486 59.456 361.731 59.968 362.222 60.352C362.734 60.7147 363.427 60.896 364.302 60.896C365.134 60.896 365.88 60.704 366.542 60.32C367.203 59.9147 367.683 59.328 367.982 58.56L368.75 60.864C368.387 61.9733 367.726 62.816 366.766 63.392C365.806 63.968 364.568 64.256 363.054 64.256ZM385.009 64.256C383.387 64.256 381.926 63.8933 380.625 63.168C379.323 62.4213 378.289 61.3867 377.521 60.064C376.774 58.7413 376.401 57.184 376.401 55.392C376.401 53.5787 376.774 52.0107 377.521 50.688C378.289 49.3653 379.323 48.3413 380.625 47.616C381.926 46.8907 383.387 46.528 385.009 46.528C386.459 46.528 387.729 46.848 388.817 47.488C389.905 48.128 390.747 49.0987 391.345 50.4C391.942 51.7013 392.241 53.3653 392.241 55.392C392.241 57.3973 391.953 59.0613 391.377 60.384C390.801 61.6853 389.969 62.656 388.881 63.296C387.814 63.936 386.523 64.256 385.009 64.256ZM385.873 60.16C386.683 60.16 387.419 59.968 388.081 59.584C388.742 59.2 389.265 58.656 389.649 57.952C390.054 57.2267 390.257 56.3733 390.257 55.392C390.257 54.3893 390.054 53.536 389.649 52.832C389.265 52.128 388.742 51.584 388.081 51.2C387.419 50.816 386.683 50.624 385.873 50.624C385.041 50.624 384.294 50.816 383.633 51.2C382.971 51.584 382.438 52.128 382.033 52.832C381.649 53.536 381.457 54.3893 381.457 55.392C381.457 56.3733 381.649 57.2267 382.033 57.952C382.438 58.656 382.971 59.2 383.633 59.584C384.294 59.968 385.041 60.16 385.873 60.16ZM390.385 64V60.48L390.481 55.36L390.161 50.272V40.256H395.153V64H390.385ZM410.333 64V60.64L410.013 59.904V53.888C410.013 52.8213 409.682 51.9893 409.021 51.392C408.381 50.7947 407.389 50.496 406.045 50.496C405.127 50.496 404.221 50.6453 403.325 50.944C402.45 51.2213 401.703 51.6053 401.085 52.096L399.293 48.608C400.231 47.9467 401.362 47.4347 402.685 47.072C404.007 46.7093 405.351 46.528 406.717 46.528C409.341 46.528 411.378 47.1467 412.829 48.384C414.279 49.6213 415.005 51.552 415.005 54.176V64H410.333ZM405.085 64.256C403.741 64.256 402.589 64.032 401.629 63.584C400.669 63.1147 399.933 62.4853 399.421 61.696C398.909 60.9067 398.653 60.0213 398.653 59.04C398.653 58.016 398.898 57.12 399.389 56.352C399.901 55.584 400.701 54.9867 401.789 54.56C402.877 54.112 404.295 53.888 406.045 53.888H410.621V56.8H406.589C405.415 56.8 404.605 56.992 404.157 57.376C403.73 57.76 403.517 58.24 403.517 58.816C403.517 59.456 403.762 59.968 404.253 60.352C404.765 60.7147 405.458 60.896 406.333 60.896C407.165 60.896 407.911 60.704 408.573 60.32C409.234 59.9147 409.714 59.328 410.013 58.56L410.781 60.864C410.418 61.9733 409.757 62.816 408.797 63.392C407.837 63.968 406.599 64.256 405.085 64.256Z" fill="#81E6D9"/>
</g>
<defs>
<clipPath id="clip0_3_2">
<rect width="613" height="587" fill="white"/>
</clipPath>
</defs>
</svg>
